<?xml version="1.0" encoding="utf-8"?>
<!-- Generator: Adobe Illustrator 21.1.0, SVG Export Plug-In . SVG Version: 6.00 Build 0)  -->
<svg version="1.1" id="Layer_1" xmlns="http://www.w3.org/2000/svg" xmlns:xlink="http://www.w3.org/1999/xlink" x="0px" y="0px"
	 viewBox="0 0 500 500" style="enable-background:new 0 0 500 500;" xml:space="preserve">
<path d="M499.2,271.1c-0.8-3.7-2.3-7-4.2-9.8c-0.8-1.5-1.9-2.7-3.1-3.8c-0.6-0.6-1.2-1.1-1.8-1.5c-0.6-0.5-1.3-0.9-2-1.3
	c-2.8-1.6-5.7-2.4-8.9-2.4c-1.6,0-3.3,0.3-5.2,0.9c-0.9,0.3-1.8,0.7-2.8,1.2c-1,0.5-2,1-3,1.6c-1.4,0.8-2.8,1.8-4.2,2.9
	c-0.4,0.2-0.7,0.5-1.1,0.9c-0.4,0.3-0.8,0.6-1.1,0.9c-0.8,0.6-1.6,1.3-2.4,1.8c-0.7,0.5-1.3,1.1-2,1.6c-0.6,0.5-1.2,1.1-1.8,1.5
	c0,0-0.4-0.6-0.9-1.1c-0.2-0.3-0.4-0.6-0.7-0.8c-0.1-0.3-0.3-0.3-0.3-0.3s-0.7-0.9-1.8-2.2c-0.5-0.6-1.2-1.4-1.8-2.2
	c-0.7-0.8-1.4-1.6-2.1-2.5c-0.7-0.9-1.5-1.7-2.2-2.4c-0.7-0.8-1.4-1.5-2-2.1c-1.1-1.2-1.9-2-2-2c0,0,0.8-0.8,2-2
	c0.6-0.6,1.3-1.3,2-2.1c0.7-0.8,1.5-1.6,2.2-2.4c0.7-0.9,1.4-1.7,2.1-2.5c0.7-0.8,1.3-1.5,1.8-2.2c1.1-1.3,1.8-2.2,1.8-2.2
	s0.1,0,0.3-0.3c0.2-0.2,0.5-0.4,0.7-0.8c0.4-0.6,0.9-1.1,0.9-1.1c0.6,0.4,1.2,1,1.8,1.5c0.6,0.5,1.2,1.1,2,1.6
	c0.8,0.6,1.6,1.3,2.4,1.8c0.3,0.3,0.7,0.5,1.1,0.9c0.4,0.3,0.7,0.6,1.1,0.9c1.5,1.1,2.8,2.1,4.2,2.9c1,0.6,2,1.1,3,1.6
	c1,0.5,1.9,0.9,2.8,1.2c1.8,0.6,3.5,0.9,5.2,0.9c3.1,0,6.1-0.8,8.9-2.4c0.7-0.4,1.4-0.8,2-1.3c0.6-0.5,1.2-0.9,1.8-1.5
	c1.2-1.1,2.2-2.3,3.1-3.8c2-2.8,3.4-6.1,4.2-9.8c0.2-1,0.4-2,0.5-2.9c0.1-1,0.2-2,0.2-3c0-1,0-2,0-3c-0.1-1.1-0.2-2.1-0.3-3.1
	c-0.2-1-0.3-2-0.6-3c-0.2-0.9-0.5-1.9-0.8-2.9c-0.3-1-0.7-1.9-1-2.8c-0.4-0.9-0.8-1.8-1.2-2.7c-0.4-0.8-0.9-1.7-1.4-2.4
	c-0.5-0.7-1.1-1.5-1.6-2.2c-0.5-0.7-1.2-1.4-1.8-1.9c-0.5-0.7-1.1-1.2-1.9-1.8c-1.3-1.1-2.7-2-4.1-2.7c-0.7-0.4-1.4-0.7-2.2-1
	c-0.7-0.3-1.5-0.5-2.2-0.7c-3.1-0.8-6.1-0.8-9.2,0.1c-1.6,0.4-3.2,1.2-4.8,2.2c-0.8,0.6-1.6,1.2-2.4,1.9c-0.4,0.3-0.8,0.8-1.2,1.1
	c-0.3,0.4-0.8,0.8-1.2,1.3c-1.1,1.1-2.2,2.4-3.4,3.8c-0.3,0.4-0.5,0.7-0.9,1.1c-0.3,0.3-0.5,0.7-0.9,1.1c-0.7,0.8-1.3,1.6-1.8,2.4
	c-0.4,0.7-0.9,1.4-1.4,2.1c-0.5,0.6-0.9,1.3-1.4,2c0,0-0.3-0.1-0.7-0.5c-0.5-0.4-1.1-0.9-1.9-1.5c-0.7-0.5-1.7-1.2-2.7-1.9
	c-0.3-0.1-0.5-0.4-0.7-0.5c-0.3-0.3-0.6-0.4-0.8-0.6c-0.5-0.3-1-0.7-1.6-1c-1.1-0.7-2.2-1.4-3.2-2.1c-1-0.6-1.9-1.2-2.8-1.7
	c-1.6-1-2.7-1.7-2.7-1.7s0.3-0.5,0.6-1.1c0.3-0.5,0.6-1.1,0.6-1.1s0.5-1,1.3-2.5c0.4-0.8,0.9-1.6,1.4-2.6c0.4-0.9,1-2,1.5-3
	c0.3-0.5,0.5-1,0.8-1.5c0.2-0.4,0.5-1,0.7-1.4c0.4-0.9,0.8-1.8,1.2-2.7c0.4-0.8,0.7-1.4,0.9-1.9c0.2-0.5,0.3-0.7,0.3-0.7
	c0.7,0.3,1.4,0.7,2.2,1c0.7,0.4,1.4,0.7,2.3,1.1c1,0.3,1.9,0.7,2.8,1.2c0.5,0.2,0.8,0.4,1.3,0.5c0.5,0.2,0.8,0.4,1.3,0.5
	c1.7,0.6,3.3,1.2,4.8,1.6c0.6,0.2,1.1,0.4,1.7,0.5c0.6,0.1,1.1,0.3,1.6,0.4c1,0.2,2,0.3,3,0.4c1.9,0.2,3.7,0,5.2-0.5
	c3-0.8,5.6-2.3,7.9-4.6c0.6-0.6,1.1-1.1,1.6-1.7c0.5-0.6,1-1.3,1.4-2c0.9-1.3,1.6-2.8,2.2-4.4c0.2-0.8,0.5-1.7,0.7-2.5
	c0.2-0.8,0.4-1.7,0.6-2.6c0.1-0.8,0.2-1.8,0.3-2.7c0.1-0.9,0-1.8,0-2.8c0-0.9-0.2-1.9-0.3-2.9c-0.1-1-0.2-2-0.5-2.9
	c-0.2-0.9-0.5-1.9-0.8-2.9c-0.3-1-0.6-2-1-2.9c-0.3-1-0.9-1.9-1.3-2.8c-0.4-0.8-1-1.7-1.5-2.6c-0.5-0.9-1.1-1.7-1.7-2.5
	c-0.6-0.8-1.3-1.6-1.9-2.3c-2.6-2.8-5.5-4.9-8.6-6.3c-1.6-0.7-3.2-1.3-4.8-1.6c-0.7-0.2-1.6-0.3-2.3-0.4c-0.8-0.1-1.6-0.1-2.4-0.1
	c-3.3,0.1-6.2,0.9-8.9,2.4c-1.5,0.8-2.7,1.9-4,3.4c-0.6,0.7-1.2,1.5-1.8,2.4c-0.6,0.9-1.2,1.9-1.8,2.9c-0.7,1.4-1.5,3-2.2,4.6
	c-0.2,0.5-0.4,0.8-0.5,1.3c-0.1,0.4-0.4,0.8-0.5,1.3c-0.4,0.9-0.8,1.8-1.1,2.8c-0.4,0.8-0.6,1.6-0.9,2.4c-0.3,0.7-0.5,1.5-0.8,2.2
	c0,0-0.3-0.1-0.8-0.4c-0.3-0.1-0.6-0.2-1-0.3c-0.3-0.2-0.7-0.3-1.2-0.5c-1-0.3-2-0.7-3.2-1.1c-0.7-0.3-1.2-0.5-1.8-0.7
	s-1.3-0.4-1.8-0.6c-1.3-0.4-2.6-1.1-3.8-1.4c-0.6-0.2-1.2-0.3-1.7-0.5c-0.5-0.1-1-0.2-1.5-0.4c-1.4-0.4-2.4-0.7-2.8-0.8
	c0-0.1,0.1-0.2,0.1-0.4c0-0.4,0.2-1.2,0.4-2c0.2-0.8,0.4-1.7,0.7-2.7c0.1-0.5,0.5-1.6,0.6-2.1c0.1-0.5,0.3-1.1,0.4-1.6
	c0.2-1.1,0.4-2.2,0.6-3.2c0.1-0.5,0.2-0.9,0.3-1.5c0.1-0.5,0.1-1,0.2-1.4c0.2-1.6,0.4-2.8,0.4-2.8s0.2-0.7,0.3-1.5
	c0-0.4,0-0.7,0.1-1c0-0.2,0-0.4,0-0.4c1.5,0.3,3.2,0.5,4.8,0.8c1,0.2,2,0.3,3,0.4c1,0.1,1.9,0.3,2.8,0.3c1.8,0.2,3.5,0.4,5.1,0.4
	c4.8,0.1,8.6-0.5,11.6-2c2.6-1.5,4.9-3.7,6.5-6.5c0.8-1.4,1.5-2.7,1.9-4.3c0.5-1.5,0.8-3.1,1-4.9c0.2-1.7,0.2-3.5-0.1-5.3
	c-0.1-0.9-0.3-1.8-0.4-2.7c-0.2-0.5-0.3-1-0.4-1.4c-0.1-0.5-0.3-1-0.4-1.4c-0.6-1.8-1.4-3.7-2.3-5.5c-0.4-0.8-1-1.7-1.5-2.6
	c-0.3-0.5-0.5-0.9-0.9-1.3c-0.3-0.4-0.6-0.8-0.9-1.2c-0.7-0.8-1.3-1.6-2-2.4c-0.4-0.3-0.7-0.8-1.1-1.1c-0.3-0.4-0.7-0.8-1.1-1.1
	c-0.7-0.6-1.5-1.3-2.3-1.9c-0.4-0.3-0.8-0.7-1.2-0.9c-0.4-0.3-0.8-0.6-1.3-0.8c-1.6-0.9-3.2-1.8-4.9-2.5c-1.7-0.6-3.4-1.1-5.1-1.4
	c-1.8-0.3-3.3-0.4-5-0.3c-1.5,0-3.1,0.3-4.6,0.7c-0.7,0.3-1.5,0.5-2.2,0.8s-1.4,0.6-2.1,1c-1.3,0.7-2.6,1.6-3.7,2.8
	c-1.1,1.2-2.2,2.6-2.9,4.3s-1.5,3.8-2,6.1c-0.3,1.6-0.7,3.2-0.9,5c-0.2,1.8-0.4,3.8-0.7,5.8c-0.2,1.7-0.3,3.4-0.5,4.9
	c0,0-0.4,0-0.9-0.1c-0.6,0-1.4-0.1-2.4-0.2c-1-0.1-2.2-0.2-3.4-0.3c-0.6,0-1.2-0.1-1.9-0.2c-0.5-0.1-1.2-0.1-1.9-0.2
	c-1.3-0.1-2.5-0.2-3.8-0.2c-1.2-0.1-2.3-0.2-3.3-0.1c-2,0-3.2,0-3.2,0s0-0.7,0-1.4c0-0.4,0-0.7,0-0.9c0.1-0.3,0-0.4,0-0.4
	s0-1.2-0.1-2.8c-0.1-0.9-0.1-1.8-0.2-2.9c0-0.2,0-0.6,0-0.8c-0.1-0.3,0-0.6-0.1-0.9c0-0.6-0.1-1.1-0.1-1.7c-0.2-2.2-0.4-4.5-0.6-6.2
	c-0.2-1.7-0.3-2.8-0.3-2.8c1.5-0.2,3.2-0.4,4.9-0.5c2.1-0.2,4-0.4,5.8-0.7c0.9-0.2,1.8-0.3,2.6-0.5c0.8-0.1,1.6-0.4,2.4-0.5
	c4.7-1.1,8.1-2.7,10.4-5.1c2.1-2.1,3.7-4.8,4.5-7.9c0.4-1.5,0.6-3.1,0.7-4.7c0-0.4,0-0.8,0-1.3c0-0.4-0.1-0.9-0.1-1.2
	c0-0.8-0.1-1.6-0.3-2.5c-0.2-0.9-0.4-1.7-0.6-2.6c-0.1-0.4-0.3-0.9-0.4-1.3c-0.2-0.3-0.3-0.7-0.5-1.2c-0.7-1.7-1.5-3.3-2.5-4.9
	c-1.1-1.7-2.3-3.3-3.6-4.7c-0.3-0.3-0.6-0.7-1-1c-0.3-0.4-0.7-0.8-1.1-1.1c-0.8-0.7-1.5-1.3-2.4-1.9c-0.3-0.1-0.4-0.3-0.6-0.5
	c-0.2-0.2-0.4-0.3-0.6-0.5c-0.4-0.2-0.8-0.6-1.3-0.8c-0.9-0.5-1.7-1-2.6-1.5c-0.9-0.4-1.8-0.8-2.8-1.2c-0.9-0.4-1.8-0.7-2.8-1
	c-1.8-0.6-3.6-0.9-5.4-1.1c-1.9-0.2-3.6-0.2-5.3,0c-3.4,0.3-6.5,1.3-9.2,2.9c-2.7,1.7-4.9,3.9-6.4,6.6c-0.9,1.4-1.4,3.1-1.8,5
	c-0.2,0.9-0.3,1.9-0.4,3c0,0.6-0.1,1.1-0.1,1.7c0,0.6,0,1.2,0,1.8c0.1,1.6,0.2,3.2,0.4,5.1c0,0.9,0.2,1.9,0.3,2.8c0.1,1,0.2,2,0.5,3
	c0.3,1.8,0.5,3.4,0.8,4.9c0,0-1.4,0.2-3.3,0.5c-1,0.1-2.1,0.3-3.3,0.5s-2.4,0.4-3.8,0.7c-1.2,0.2-2.5,0.5-3.7,0.8
	c-1.2,0.3-2.3,0.5-3.2,0.8c-1.3,0.3-2.3,0.5-2.8,0.7c-0.1-0.4-0.4-1.3-0.7-2.3c-0.2-0.8-0.5-1.8-0.8-2.8c-0.1-0.5-0.3-1-0.5-1.6
	c-0.1-0.5-0.3-1-0.5-1.6c-0.4-1.1-0.7-2.2-1.1-3.2c-0.2-0.5-0.3-1-0.5-1.5c-0.1-0.4-0.3-0.9-0.4-1.3c-0.6-1.6-1-2.7-1-2.7
	s-0.2-0.6-0.5-1.3c-0.2-0.6-0.5-1.3-0.5-1.3c1.5-0.5,3-1.2,4.6-1.8c1-0.3,1.9-0.7,2.8-1.1c0.9-0.4,1.8-0.8,2.6-1.1
	c1.7-0.7,3.2-1.4,4.6-2.2c0.5-0.3,1-0.6,1.5-0.9c0.5-0.3,1-0.6,1.4-0.9c0.9-0.6,1.7-1.2,2.4-1.8c1.5-1.4,2.6-2.7,3.4-4.1
	c1.5-2.7,2.4-5.7,2.4-8.9c0.1-3.2-0.7-6.3-2.1-9.4c-0.7-1.7-1.7-3.2-2.7-4.6c-1-1.4-2.3-2.8-3.7-4.1c-0.8-0.7-1.5-1.3-2.3-1.9
	c-0.8-0.7-1.6-1.3-2.5-1.8c-0.9-0.5-1.7-1-2.6-1.5c-0.4-0.2-0.9-0.4-1.4-0.7c-0.3-0.1-0.5-0.2-0.7-0.3c-0.3-0.1-0.5-0.2-0.7-0.3
	c-0.9-0.4-1.9-0.7-2.9-1.1c-0.5-0.1-1-0.2-1.5-0.4c-0.4-0.1-0.9-0.3-1.4-0.4c-1.9-0.4-4-0.7-5.9-0.7c-1.8,0-3.7,0.1-5.5,0.3
	c-0.4,0-0.9,0.1-1.3,0.2c-0.5,0.1-0.9,0.2-1.3,0.3c-0.9,0.2-1.6,0.4-2.5,0.8c-0.7,0.3-1.5,0.6-2.3,1c-0.4,0.1-0.8,0.4-1.1,0.5
	c-0.4,0.2-0.7,0.4-1.1,0.7c-1.4,0.8-2.6,1.9-3.7,3c-2.2,2.2-3.7,4.9-4.5,7.9c-0.9,3.2-0.5,7,0.9,11.6c0.2,0.7,0.5,1.5,0.8,2.3
	c0.3,0.7,0.6,1.6,0.9,2.5c0.8,1.7,1.5,3.5,2.3,5.4c0.7,1.7,1.4,3.1,2,4.5c0,0-1.2,0.6-3.1,1.3c-0.5,0.2-0.9,0.4-1.4,0.7
	c-0.5,0.3-1,0.6-1.6,0.8c-1.2,0.6-2.4,1.1-3.5,1.7c-0.2,0.2-0.5,0.3-0.8,0.4c-0.2,0.2-0.5,0.3-0.8,0.4c-0.6,0.4-1.2,0.6-1.7,0.9
	c-1.1,0.5-2.1,1.1-3,1.5c-0.3,0.1-0.5,0.2-0.6,0.3c-0.2,0.1-0.3,0.2-0.5,0.3c-0.4,0.2-0.7,0.4-0.9,0.5c-0.4,0.3-0.7,0.5-0.7,0.5
	s-0.3-0.6-0.7-1.2c-0.3-0.6-0.7-1.2-0.7-1.2s-0.2-0.3-0.4-0.7c-0.1-0.2-0.3-0.4-0.5-0.7c-0.2-0.2-0.4-0.6-0.6-0.9
	c-0.5-0.7-1.1-1.5-1.6-2.4c-0.3-0.4-0.7-0.8-1-1.4c-0.2-0.2-0.3-0.5-0.5-0.7c-0.2-0.3-0.3-0.5-0.5-0.7c-1.3-1.8-2.6-3.7-3.7-5.1
	c-1-1.4-1.7-2.3-1.7-2.3c1.2-0.9,2.6-1.9,4-2.9c1.7-1.2,3.2-2.4,4.7-3.5c1.5-1.1,2.8-2.2,3.9-3.3c1.8-1.6,3.2-3.3,4.3-4.8
	c1.1-1.6,1.8-3.1,2.2-4.7c0.3-1.6,0.6-3,0.5-4.6c0-0.7,0-1.5-0.2-2.3c0-0.7-0.2-1.5-0.4-2.3c-0.3-1.5-0.9-2.8-1.7-4.3
	s-1.7-2.8-2.8-4.2c-1.1-1.3-2.4-2.5-3.8-3.7c-1.4-1.2-2.9-2.1-4.6-3c-0.4-0.2-0.9-0.4-1.4-0.7c-0.5-0.2-0.9-0.4-1.4-0.6
	c-0.8-0.4-1.8-0.7-2.8-1c-0.5-0.1-1-0.2-1.5-0.4c-0.5-0.2-1-0.3-1.5-0.4c-1.1-0.2-2-0.3-3.1-0.5c-0.5-0.1-1-0.1-1.5-0.2
	C280.5,0,279.9,0,279.5,0c-1,0-2.1,0-3,0c-2,0-4,0.4-5.9,0.8c-0.4,0.1-1,0.3-1.4,0.4c-0.5,0.1-1,0.3-1.4,0.4c-0.9,0.3-1.7,0.6-2.5,1
	c-1.7,0.7-3.2,1.5-4.6,2.6c-1.4,1-2.6,2.1-3.7,3.3c-1.1,1.2-2,2.5-2.8,3.8c-1.5,2.8-2.3,5.8-2.3,8.8c0,3.2,1.3,6.8,3.8,10.9
	c0.9,1.3,1.8,2.8,2.9,4.2c0.5,0.7,1.1,1.5,1.7,2.3c0.6,0.7,1.2,1.5,1.9,2.4c1.1,1.3,2.2,2.6,3.1,3.8c0,0,0,0.1-0.2,0.1
	c0,0.1-0.2,0.2-0.5,0.4c-0.4,0.3-1.1,0.9-1.9,1.5c-0.8,0.6-1.7,1.3-2.6,2.1c-1,0.7-2,1.6-2.9,2.5c-0.5,0.4-0.9,0.8-1.4,1.3
	c-0.5,0.4-0.9,0.8-1.4,1.3c-0.9,0.8-1.8,1.6-2.5,2.3c-0.6,0.7-1.2,1.3-1.6,1.6c-0.2,0.2-0.3,0.3-0.4,0.4c-0.1-0.1-0.2-0.2-0.4-0.4
	c-0.4-0.3-1-0.9-1.6-1.6c-0.7-0.6-1.5-1.4-2.5-2.3c-0.5-0.4-0.9-0.8-1.4-1.3c-0.5-0.4-0.9-0.8-1.4-1.3c-0.9-0.8-1.9-1.8-2.9-2.5
	c-0.9-0.8-1.8-1.5-2.6-2.1c-0.8-0.6-1.5-1.1-1.9-1.5c-0.2-0.2-0.4-0.3-0.5-0.4c-0.1,0-0.2-0.1-0.2-0.1c1-1.1,2.1-2.5,3.1-3.8
	c0.7-0.8,1.3-1.6,1.9-2.4c0.6-0.8,1.2-1.5,1.7-2.3c1.1-1.5,2-2.9,2.9-4.2c2.5-4.1,3.8-7.6,3.8-10.9c0-3.1-0.8-6-2.3-8.8
	c-0.7-1.3-1.6-2.6-2.8-3.8c-1.1-1.2-2.3-2.2-3.7-3.3c-1.4-1-2.9-1.9-4.6-2.6c-0.8-0.4-1.7-0.7-2.5-1c-0.4-0.1-0.9-0.3-1.4-0.4
	c-0.4-0.1-1-0.3-1.4-0.4c-1.9-0.4-3.9-0.8-5.9-0.8c-0.9,0-2,0-3,0c-0.4,0-1,0-1.6,0.1c-0.5,0.1-1,0.1-1.5,0.2
	c-1.1,0.2-2,0.3-3.1,0.5c-0.5,0.1-1,0.2-1.5,0.4c-0.5,0.2-1,0.3-1.5,0.4c-1,0.3-1.9,0.7-2.8,1c-0.5,0.2-0.9,0.4-1.4,0.6
	c-0.4,0.2-0.9,0.4-1.4,0.7c-1.7,0.9-3.2,1.8-4.6,3c-1.4,1.2-2.7,2.4-3.8,3.7c-1.1,1.3-2,2.7-2.8,4.2c-0.8,1.5-1.4,2.9-1.7,4.3
	c-0.2,0.8-0.4,1.6-0.4,2.3c-0.1,0.8-0.1,1.6-0.2,2.3c0,1.5,0.2,3,0.5,4.6c0.5,1.6,1.1,3.2,2.2,4.7c1.1,1.6,2.5,3.2,4.3,4.8
	c1.1,1.1,2.4,2.2,3.9,3.3s3,2.3,4.7,3.5c1.4,1,2.8,2,4,2.9c0,0-0.8,0.9-1.7,2.3c-1,1.4-2.4,3.3-3.7,5.1c-0.2,0.2-0.3,0.4-0.5,0.7
	c-0.2,0.2-0.3,0.5-0.5,0.7c-0.3,0.5-0.6,0.9-1,1.4c-0.5,0.9-1.1,1.7-1.6,2.4c-0.2,0.4-0.4,0.7-0.6,0.9c-0.2,0.3-0.4,0.6-0.5,0.7
	c-0.2,0.4-0.4,0.7-0.4,0.7s-0.4,0.6-0.7,1.2c-0.4,0.6-0.7,1.2-0.7,1.2s-0.3-0.2-0.7-0.5c-0.2-0.1-0.5-0.3-0.9-0.5
	c-0.2-0.1-0.3-0.2-0.5-0.3c-0.2-0.1-0.4-0.2-0.6-0.3c-0.8-0.4-1.9-1-3-1.5c-0.5-0.3-1.1-0.5-1.7-0.9c-0.3-0.2-0.6-0.2-0.8-0.4
	c-0.3-0.2-0.6-0.2-0.8-0.4c-1.2-0.6-2.4-1.1-3.5-1.7c-0.6-0.2-1.1-0.5-1.6-0.8c-0.5-0.3-1-0.5-1.4-0.7c-1.8-0.8-3.1-1.3-3.1-1.3
	c0.6-1.4,1.4-2.9,2-4.5c0.9-1.9,1.6-3.7,2.3-5.4c0.3-0.9,0.6-1.7,0.9-2.5c0.2-0.8,0.6-1.6,0.8-2.3c1.4-4.6,1.8-8.4,0.9-11.6
	c-0.8-3-2.3-5.7-4.5-7.9c-1.1-1.1-2.3-2.2-3.7-3c-0.4-0.2-0.7-0.4-1.1-0.7c-0.3-0.2-0.7-0.4-1.1-0.5c-0.8-0.4-1.6-0.7-2.3-1
	c-0.9-0.3-1.6-0.6-2.5-0.8c-0.4-0.1-0.8-0.2-1.3-0.3c-0.4-0.1-0.9-0.2-1.3-0.2c-1.8-0.3-3.7-0.3-5.5-0.3c-1.9,0.1-4,0.3-5.9,0.7
	c-0.5,0.1-1,0.2-1.4,0.4c-0.5,0.2-1,0.3-1.5,0.4c-1,0.3-1.9,0.7-2.9,1.1c-0.3,0.1-0.5,0.2-0.7,0.3c-0.3,0.1-0.4,0.2-0.7,0.3
	c-0.4,0.2-0.9,0.4-1.4,0.7c-0.9,0.5-1.7,1-2.6,1.5c-0.9,0.5-1.7,1.1-2.5,1.8c-0.8,0.6-1.5,1.2-2.3,1.9c-1.4,1.2-2.6,2.7-3.7,4.1
	c-1,1.4-2,2.9-2.7,4.6c-1.4,3.1-2.2,6.2-2.1,9.4c0,3.2,0.9,6.2,2.4,8.9c0.8,1.4,1.9,2.7,3.4,4.1c0.7,0.6,1.5,1.2,2.4,1.8
	c0.4,0.3,0.9,0.6,1.4,0.9c0.5,0.3,1,0.6,1.5,0.9c1.4,0.8,3,1.5,4.6,2.2c0.8,0.4,1.7,0.8,2.6,1.1s1.8,0.8,2.8,1.1
	c1.6,0.6,3.1,1.2,4.6,1.8c0,0-0.3,0.7-0.5,1.3c-0.3,0.7-0.5,1.3-0.5,1.3s-0.4,1.1-1,2.7c-0.1,0.4-0.3,0.9-0.4,1.3
	c-0.2,0.5-0.3,1-0.5,1.5c-0.3,1-0.7,2-1.1,3.2c-0.1,0.5-0.3,1-0.5,1.6c-0.1,0.5-0.3,1-0.5,1.6c-0.3,1-0.6,2-0.8,2.8
	c-0.3,1-0.6,1.9-0.7,2.3c-0.5-0.1-1.5-0.4-2.8-0.7c-1-0.3-2-0.5-3.2-0.8c-1.2-0.2-2.5-0.5-3.7-0.8c-1.3-0.3-2.6-0.5-3.8-0.7
	c-1.2-0.2-2.3-0.4-3.3-0.5c-1.9-0.3-3.3-0.5-3.3-0.5c0.3-1.5,0.5-3.1,0.8-4.9c0.2-1,0.3-2,0.5-3c0.1-1,0.3-1.9,0.3-2.8
	c0.2-1.9,0.3-3.5,0.4-5.1c0-0.6,0-1.2,0-1.8c0-0.6-0.1-1.1-0.1-1.7c-0.1-1.1-0.2-2.1-0.4-3c-0.4-1.9-0.9-3.5-1.8-5
	c-1.5-2.7-3.7-4.9-6.4-6.6c-2.6-1.6-5.8-2.6-9.2-2.9c-1.7-0.2-3.4-0.1-5.3,0c-1.7,0.2-3.6,0.6-5.4,1.1c-1,0.3-1.8,0.6-2.8,1
	c-0.9,0.4-1.8,0.8-2.8,1.2c-0.9,0.5-1.7,1-2.6,1.5c-0.4,0.2-0.8,0.6-1.3,0.8c-0.3,0.1-0.4,0.2-0.6,0.5c-0.3,0.1-0.4,0.3-0.6,0.5
	c-0.8,0.6-1.6,1.3-2.4,1.9c-0.4,0.3-0.8,0.7-1.1,1.1c-0.4,0.3-0.7,0.8-1,1c-1.4,1.5-2.5,3.1-3.6,4.7c-1,1.6-1.8,3.3-2.5,4.9
	c-0.2,0.5-0.3,0.9-0.5,1.2c-0.1,0.4-0.3,0.9-0.4,1.3c-0.2,0.8-0.4,1.6-0.6,2.6c-0.2,0.9-0.3,1.7-0.3,2.5c0,0.4-0.1,0.9-0.1,1.2
	c0,0.4,0,0.8,0,1.3c0.1,1.6,0.3,3.2,0.7,4.7c0.9,3.1,2.4,5.8,4.5,7.9c2.3,2.4,5.7,4,10.4,5.1c0.8,0.1,1.6,0.4,2.4,0.5
	c0.8,0.2,1.7,0.3,2.6,0.5c1.8,0.3,3.8,0.5,5.8,0.7c1.7,0.2,3.4,0.3,4.9,0.5c0,0-0.2,1.1-0.3,2.8c-0.2,1.7-0.4,4-0.6,6.2
	c0,0.6-0.1,1.1-0.1,1.7c-0.1,0.3,0,0.6-0.1,0.9c0,0.2,0,0.6,0,0.8c-0.1,1.1-0.1,2-0.2,2.9c-0.1,1.7-0.1,2.8-0.1,2.8s0,0.1,0,0.4
	c0,0.2,0,0.6,0,0.9c0,0.7,0,1.4,0,1.4s-1.3,0-3.2,0c-0.9,0-2.1,0-3.3,0.1c-1.3,0-2.5,0.1-3.8,0.2c-0.7,0-1.3,0.1-1.9,0.2
	c-0.7,0-1.3,0.2-1.9,0.2c-1.2,0.1-2.4,0.2-3.4,0.3c-1,0.1-1.8,0.2-2.4,0.2c-0.5,0.1-0.9,0.1-0.9,0.1c-0.2-1.5-0.3-3.2-0.5-4.9
	c-0.3-2.1-0.5-4-0.7-5.8c-0.2-1.8-0.6-3.5-0.9-5c-0.5-2.3-1.2-4.4-2-6.1c-0.8-1.8-1.8-3.1-2.9-4.3c-1.1-1.1-2.3-2-3.7-2.8
	c-0.7-0.4-1.3-0.7-2.1-1c-0.7-0.3-1.5-0.5-2.2-0.8c-1.5-0.4-3-0.7-4.6-0.7c-1.7-0.1-3.2,0-5,0.3c-1.7,0.3-3.4,0.8-5.1,1.4
	c-1.7,0.6-3.3,1.5-4.9,2.5c-0.4,0.2-0.9,0.5-1.3,0.8c-0.4,0.2-0.8,0.6-1.2,0.9c-0.8,0.6-1.6,1.3-2.3,1.9c-0.4,0.3-0.8,0.7-1.1,1.1
	c-0.4,0.3-0.7,0.8-1.1,1.1c-0.7,0.8-1.3,1.6-2,2.4c-0.3,0.4-0.6,0.8-0.9,1.2c-0.3,0.4-0.6,0.8-0.9,1.3c-0.5,0.9-1.1,1.8-1.5,2.6
	c-0.9,1.8-1.7,3.6-2.3,5.5c-0.1,0.4-0.3,0.9-0.4,1.4c-0.1,0.4-0.2,0.9-0.4,1.4c-0.2,0.9-0.3,1.8-0.4,2.7c-0.3,1.8-0.3,3.5-0.1,5.3
	c0.2,1.7,0.4,3.3,1,4.9c0.5,1.6,1.1,2.9,1.9,4.3c1.6,2.8,3.9,4.9,6.5,6.5c3,1.5,6.8,2.1,11.6,2c1.6,0,3.3-0.1,5.1-0.4
	c0.9-0.1,1.8-0.2,2.8-0.3c1-0.1,2-0.2,3-0.4c1.7-0.3,3.4-0.6,4.8-0.8c0,0,0,0.2,0,0.4c0.1,0.3,0.1,0.6,0.1,1
	c0.1,0.8,0.3,1.5,0.3,1.5s0.2,1.2,0.4,2.8c0.1,0.4,0.1,0.8,0.2,1.4c0.1,0.5,0.2,0.9,0.3,1.5c0.2,1,0.4,2.2,0.6,3.2
	c0.1,0.5,0.3,1.1,0.4,1.6c0.1,0.5,0.5,1.6,0.6,2.1c0.2,1,0.4,2,0.7,2.7c0.2,0.8,0.4,1.5,0.4,2c0.1,0.2,0.1,0.3,0.1,0.4
	c-0.4,0.1-1.4,0.4-2.8,0.8c-0.5,0.2-1,0.3-1.5,0.4c-0.5,0.2-1.1,0.3-1.7,0.5c-1.2,0.3-2.5,1-3.8,1.4c-0.6,0.2-1.3,0.4-1.8,0.6
	c-0.6,0.2-1.1,0.4-1.8,0.7c-1.1,0.4-2.2,0.8-3.2,1.1c-0.5,0.2-0.9,0.3-1.2,0.5c-0.4,0.1-0.7,0.3-1,0.3c-0.6,0.2-0.8,0.4-0.8,0.4
	c-0.3-0.7-0.5-1.5-0.8-2.2c-0.3-0.7-0.5-1.5-0.9-2.4c-0.3-1-0.7-1.9-1.1-2.8c-0.2-0.5-0.4-0.9-0.5-1.3c-0.2-0.5-0.4-0.8-0.5-1.3
	c-0.7-1.7-1.5-3.2-2.2-4.6c-0.6-1-1.1-2-1.8-2.9c-0.6-0.9-1.2-1.7-1.8-2.4c-1.3-1.5-2.5-2.6-4-3.4c-2.7-1.5-5.6-2.3-8.9-2.4
	c-0.8,0-1.6,0-2.4,0.1c-0.8,0.1-1.6,0.2-2.3,0.4c-1.6,0.3-3.2,0.9-4.8,1.6c-3.1,1.4-6,3.6-8.6,6.3c-0.6,0.7-1.4,1.5-1.9,2.3
	c-0.6,0.8-1.2,1.6-1.7,2.5c-0.5,0.9-1.1,1.8-1.5,2.6c-0.4,0.9-0.9,1.8-1.3,2.8c-0.4,0.9-0.7,1.9-1,2.9c-0.3,1-0.6,2-0.8,2.9
	c-0.3,1-0.4,2-0.5,2.9c-0.1,1-0.2,2-0.3,2.9c0,0.9-0.1,1.9,0,2.8c0.1,0.9,0.2,1.9,0.3,2.7c0.1,0.8,0.3,1.8,0.6,2.6
	c0.2,0.8,0.5,1.7,0.7,2.5c0.6,1.6,1.3,3.1,2.2,4.4c0.4,0.7,0.9,1.3,1.4,2c0.5,0.6,1,1.2,1.6,1.7c2.3,2.2,4.9,3.8,7.9,4.6
	c1.6,0.5,3.4,0.6,5.2,0.5c1-0.1,2-0.2,3-0.4c0.5-0.1,1-0.2,1.6-0.4c0.5-0.1,1.1-0.3,1.7-0.5c1.5-0.4,3.1-1,4.8-1.6
	c0.5-0.2,0.8-0.4,1.3-0.5c0.5-0.2,0.8-0.4,1.3-0.5c0.9-0.4,1.8-0.8,2.8-1.2c0.8-0.4,1.6-0.7,2.3-1.1c0.7-0.3,1.4-0.7,2.2-1
	c0,0,0.1,0.3,0.3,0.7c0.2,0.5,0.5,1.1,0.9,1.9c0.4,0.8,0.8,1.8,1.2,2.7c0.2,0.4,0.5,1,0.7,1.4c0.3,0.5,0.5,1,0.8,1.5
	c0.5,1,1.1,2,1.5,3c0.5,1,0.9,1.8,1.4,2.6c0.8,1.5,1.3,2.5,1.3,2.5s0.3,0.6,0.6,1.1c0.3,0.6,0.6,1.1,0.6,1.1s-1.1,0.6-2.7,1.7
	c-0.9,0.5-1.8,1.1-2.8,1.7c-1,0.7-2.1,1.3-3.2,2.1c-0.6,0.3-1.1,0.7-1.6,1c-0.3,0.1-0.5,0.3-0.8,0.6c-0.3,0.1-0.5,0.4-0.7,0.5
	c-1,0.7-2,1.4-2.7,1.9c-0.8,0.6-1.5,1.1-1.9,1.5c-0.5,0.4-0.7,0.5-0.7,0.5c-0.5-0.6-0.9-1.3-1.4-2c-0.5-0.6-1-1.4-1.4-2.1
	c-0.6-0.8-1.2-1.6-1.8-2.4c-0.3-0.4-0.6-0.8-0.9-1.1c-0.3-0.4-0.5-0.7-0.9-1.1c-1.2-1.4-2.3-2.7-3.4-3.8c-0.4-0.5-0.9-0.9-1.2-1.3
	c-0.4-0.3-0.8-0.8-1.2-1.1c-0.8-0.7-1.6-1.3-2.4-1.9c-1.5-1.1-3.2-1.9-4.8-2.2c-3-0.8-6-0.8-9.2-0.1c-0.7,0.2-1.5,0.4-2.2,0.7
	c-0.7,0.3-1.5,0.6-2.2,1c-1.4,0.7-2.8,1.6-4.1,2.7c-0.7,0.5-1.3,1.1-1.9,1.8c-0.6,0.6-1.2,1.3-1.8,1.9c-0.5,0.7-1.1,1.5-1.6,2.2
	c-0.5,0.7-0.9,1.6-1.4,2.4c-0.4,0.8-0.8,1.8-1.2,2.7c-0.4,0.9-0.7,1.8-1,2.8c-0.3,1-0.6,2-0.8,2.9c-0.3,1-0.4,2-0.6,3
	c-0.1,1-0.2,2-0.3,3.1c0,1,0,2,0,3c0,1,0.1,2,0.2,3c0.1,1,0.3,1.9,0.5,2.9c0.8,3.7,2.3,7,4.2,9.8c0.8,1.5,1.9,2.7,3.1,3.8
	c0.6,0.6,1.2,1.1,1.8,1.5c0.6,0.5,1.3,0.9,2,1.3c2.8,1.6,5.7,2.4,8.9,2.4c1.6,0,3.3-0.3,5.2-0.9c0.9-0.3,1.8-0.7,2.8-1.2
	c1-0.5,2-1,3-1.6c1.4-0.8,2.8-1.8,4.2-2.9c0.4-0.2,0.7-0.5,1.1-0.9c0.4-0.3,0.8-0.6,1.1-0.9c0.8-0.6,1.6-1.3,2.4-1.8
	c0.7-0.5,1.3-1.1,2-1.6c0.6-0.5,1.2-1.1,1.8-1.5c0,0,0.4,0.6,0.9,1.1c0.2,0.3,0.4,0.6,0.7,0.8c0.1,0.3,0.3,0.3,0.3,0.3
	s0.7,0.9,1.8,2.2c0.5,0.6,1.2,1.4,1.8,2.2c0.7,0.8,1.4,1.6,2.1,2.5c0.7,0.9,1.5,1.7,2.2,2.4c0.7,0.8,1.4,1.5,2,2.1
	c1.1,1.2,1.9,2,2,2c0,0-0.8,0.8-2,2c-0.6,0.6-1.3,1.3-2,2.1c-0.7,0.8-1.5,1.6-2.2,2.4c-0.7,0.9-1.4,1.7-2.1,2.5
	c-0.7,0.8-1.3,1.5-1.8,2.2c-1.1,1.3-1.8,2.2-1.8,2.2s-0.1,0-0.3,0.3c-0.2,0.2-0.5,0.4-0.7,0.8c-0.4,0.6-0.9,1.1-0.9,1.1
	c-0.6-0.4-1.2-1-1.8-1.5c-0.6-0.5-1.2-1.1-2-1.6c-0.8-0.6-1.6-1.3-2.4-1.8c-0.3-0.3-0.7-0.5-1.1-0.9c-0.4-0.3-0.7-0.6-1.1-0.9
	c-1.5-1.1-2.8-2.1-4.2-2.9c-1-0.6-2-1.1-3-1.6c-1-0.5-1.9-0.9-2.8-1.2c-1.8-0.6-3.5-0.9-5.2-0.9c-3.1,0-6.1,0.8-8.9,2.4
	c-0.7,0.4-1.4,0.8-2,1.3c-0.6,0.5-1.2,0.9-1.8,1.5c-1.2,1.1-2.2,2.3-3.1,3.8c-2,2.8-3.4,6.1-4.2,9.8c-0.2,1-0.4,2-0.5,2.9
	c-0.1,1-0.2,2-0.2,3c0,1,0,2,0,3c0.1,1.1,0.2,2.1,0.3,3.1c0.2,1,0.3,2,0.6,3c0.2,0.9,0.5,1.9,0.8,2.9c0.3,1,0.7,1.9,1,2.8
	c0.4,0.9,0.8,1.8,1.2,2.7c0.4,0.8,0.9,1.7,1.4,2.4s1.1,1.5,1.6,2.2c0.5,0.7,1.2,1.4,1.8,1.9c0.5,0.7,1.1,1.2,1.9,1.8
	c1.3,1.1,2.7,2,4.1,2.7c0.7,0.4,1.4,0.7,2.2,1c0.7,0.3,1.5,0.5,2.2,0.7c3.1,0.8,6.1,0.8,9.2-0.1c1.6-0.4,3.2-1.2,4.8-2.2
	c0.8-0.6,1.6-1.2,2.4-1.9c0.4-0.3,0.8-0.8,1.2-1.1c0.3-0.4,0.8-0.8,1.2-1.3c1.1-1.1,2.2-2.4,3.4-3.8c0.3-0.4,0.5-0.7,0.9-1.1
	c0.3-0.3,0.5-0.7,0.9-1.1c0.7-0.8,1.3-1.6,1.8-2.4c0.4-0.7,0.9-1.4,1.4-2.1c0.5-0.6,0.9-1.3,1.4-2c0,0,0.3,0.1,0.7,0.5
	c0.5,0.4,1.1,0.9,1.9,1.5c0.7,0.5,1.7,1.2,2.7,1.9c0.3,0.1,0.5,0.4,0.7,0.5c0.3,0.3,0.6,0.4,0.8,0.6c0.5,0.3,1,0.7,1.6,1
	c1.1,0.7,2.2,1.4,3.2,2.1c1,0.6,1.9,1.2,2.8,1.7c1.6,1,2.7,1.7,2.7,1.7s-0.3,0.5-0.6,1.1c-0.3,0.5-0.6,1.1-0.6,1.1s-0.5,1-1.3,2.5
	c-0.4,0.8-0.9,1.6-1.4,2.6c-0.4,0.9-1,2-1.5,3c-0.3,0.5-0.5,1-0.8,1.5c-0.2,0.4-0.5,1-0.7,1.4c-0.4,0.9-0.8,1.8-1.2,2.7
	s-0.7,1.4-0.9,1.9c-0.2,0.5-0.3,0.7-0.3,0.7c-0.7-0.3-1.4-0.7-2.2-1c-0.7-0.4-1.4-0.7-2.3-1.1c-1-0.3-1.9-0.7-2.8-1.2
	c-0.5-0.2-0.8-0.4-1.3-0.5c-0.5-0.2-0.8-0.4-1.3-0.5c-1.7-0.6-3.3-1.2-4.8-1.6c-0.6-0.2-1.1-0.4-1.7-0.5c-0.6-0.1-1.1-0.3-1.6-0.4
	c-1-0.2-2-0.3-3-0.4c-1.9-0.2-3.7,0-5.2,0.5c-3,0.8-5.6,2.3-7.9,4.6c-0.6,0.6-1.1,1.1-1.6,1.7c-0.5,0.6-1,1.3-1.4,2
	c-0.9,1.3-1.6,2.8-2.2,4.4c-0.2,0.8-0.5,1.7-0.7,2.5c-0.2,0.8-0.4,1.7-0.6,2.6c-0.1,0.8-0.2,1.8-0.3,2.7c-0.1,0.9,0,1.8,0,2.8
	c0,0.9,0.2,1.9,0.3,2.9c0.1,1,0.2,2,0.5,2.9c0.2,0.9,0.5,1.9,0.8,2.9c0.3,1,0.6,2,1,2.9c0.3,1,0.9,1.9,1.3,2.8
	c0.4,0.8,1,1.7,1.5,2.6c0.5,0.9,1.1,1.7,1.7,2.5c0.6,0.8,1.3,1.6,1.9,2.3c2.6,2.8,5.5,4.9,8.6,6.3c1.6,0.7,3.2,1.3,4.8,1.6
	c0.7,0.2,1.6,0.3,2.3,0.4c0.8,0.1,1.6,0.1,2.4,0.1c3.3-0.1,6.2-0.9,8.9-2.4c1.5-0.8,2.7-1.9,4-3.4c0.6-0.7,1.2-1.5,1.8-2.4
	c0.6-0.9,1.2-1.9,1.8-2.9c0.7-1.4,1.5-3,2.2-4.6c0.2-0.5,0.4-0.8,0.5-1.3c0.1-0.4,0.4-0.8,0.5-1.3c0.4-0.9,0.8-1.8,1.1-2.8
	c0.4-0.8,0.6-1.6,0.9-2.4c0.3-0.7,0.5-1.5,0.8-2.2c0,0,0.3,0.1,0.8,0.4c0.3,0.1,0.6,0.2,1,0.3c0.3,0.2,0.7,0.3,1.2,0.5
	c1,0.3,2,0.7,3.2,1.1c0.7,0.3,1.2,0.5,1.8,0.7c0.6,0.2,1.3,0.4,1.8,0.6c1.3,0.4,2.6,1.1,3.8,1.4c0.6,0.2,1.2,0.3,1.7,0.5
	c0.5,0.1,1,0.2,1.5,0.4c1.4,0.4,2.4,0.7,2.8,0.8c0,0.1-0.1,0.2-0.1,0.4c0,0.4-0.2,1.2-0.4,2c-0.2,0.8-0.4,1.7-0.7,2.7
	c-0.1,0.5-0.5,1.6-0.6,2.1c-0.1,0.5-0.3,1.1-0.4,1.6c-0.2,1.1-0.4,2.2-0.6,3.2c-0.1,0.5-0.2,0.9-0.3,1.5c-0.1,0.5-0.1,1-0.2,1.4
	c-0.2,1.6-0.4,2.8-0.4,2.8s-0.2,0.7-0.3,1.5c0,0.4,0,0.7-0.1,1c0,0.2,0,0.4,0,0.4c-1.5-0.3-3.2-0.5-4.8-0.8c-1-0.2-2-0.3-3-0.4
	c-1-0.1-1.9-0.3-2.8-0.3c-1.8-0.2-3.5-0.4-5.1-0.4c-4.8-0.1-8.6,0.5-11.6,2c-2.6,1.5-4.9,3.7-6.5,6.5c-0.8,1.4-1.5,2.7-1.9,4.3
	c-0.5,1.5-0.8,3.1-1,4.9c-0.2,1.7-0.2,3.5,0.1,5.3c0.1,0.9,0.3,1.8,0.4,2.7c0.2,0.5,0.3,1,0.4,1.4c0.1,0.5,0.3,1,0.4,1.4
	c0.6,1.8,1.4,3.7,2.3,5.5c0.4,0.8,1,1.7,1.5,2.6c0.3,0.5,0.5,0.9,0.9,1.3c0.3,0.4,0.6,0.8,0.9,1.2c0.7,0.8,1.3,1.6,2,2.4
	c0.4,0.3,0.7,0.8,1.1,1.1c0.3,0.4,0.7,0.8,1.1,1.1c0.7,0.6,1.5,1.3,2.3,1.9c0.4,0.3,0.8,0.7,1.2,0.9c0.4,0.3,0.8,0.6,1.3,0.8
	c1.6,0.9,3.2,1.8,4.9,2.5c1.7,0.6,3.4,1.1,5.1,1.4c1.8,0.3,3.3,0.4,5,0.3c1.5,0,3.1-0.3,4.6-0.7c0.7-0.3,1.5-0.5,2.2-0.8
	c0.7-0.3,1.4-0.6,2.1-1c1.3-0.7,2.6-1.6,3.7-2.8c1.1-1.2,2.2-2.6,2.9-4.3c0.8-1.8,1.5-3.8,2-6.1c0.3-1.6,0.7-3.2,0.9-5
	c0.2-1.8,0.4-3.8,0.7-5.8c0.2-1.7,0.3-3.4,0.5-4.9c0,0,0.4,0,0.9,0.1c0.6,0,1.4,0.1,2.4,0.2c1,0.1,2.2,0.2,3.4,0.3
	c0.6,0,1.2,0.1,1.9,0.2c0.5,0.1,1.2,0.1,1.9,0.2c1.3,0.1,2.5,0.2,3.8,0.2c1.2,0.1,2.3,0.2,3.3,0.1c2,0,3.2,0,3.2,0s0,0.7,0,1.4
	c0,0.4,0,0.7,0,0.9c-0.1,0.3,0,0.4,0,0.4s0,1.2,0.1,2.8c0.1,0.9,0.1,1.8,0.2,2.9c0,0.2,0,0.6,0,0.8c0.1,0.3,0,0.6,0.1,0.9
	c0,0.6,0.1,1.1,0.1,1.7c0.2,2.2,0.4,4.5,0.6,6.2c0.2,1.7,0.3,2.8,0.3,2.8c-1.5,0.2-3.2,0.4-4.9,0.5c-2.1,0.2-4,0.4-5.8,0.7
	c-0.9,0.2-1.8,0.3-2.6,0.5c-0.8,0.1-1.6,0.4-2.4,0.5c-4.7,1.1-8.1,2.7-10.4,5.1c-2.1,2.1-3.7,4.8-4.5,7.9c-0.4,1.5-0.6,3.1-0.7,4.7
	c0,0.4,0,0.8,0,1.3c0,0.4,0.1,0.9,0.1,1.2c0,0.8,0.1,1.6,0.3,2.5c0.2,0.9,0.4,1.7,0.6,2.6c0.1,0.4,0.3,0.9,0.4,1.3
	c0.2,0.3,0.3,0.7,0.5,1.2c0.7,1.7,1.5,3.3,2.5,4.9c1.1,1.7,2.3,3.3,3.6,4.7c0.3,0.3,0.6,0.7,1,1c0.3,0.4,0.7,0.8,1.1,1.1
	c0.8,0.7,1.5,1.3,2.4,1.9c0.3,0.1,0.4,0.3,0.6,0.5c0.2,0.2,0.4,0.3,0.6,0.5c0.4,0.2,0.8,0.6,1.3,0.8c0.9,0.5,1.7,1,2.6,1.5
	c0.9,0.4,1.8,0.8,2.8,1.2c0.9,0.4,1.8,0.7,2.8,1c1.8,0.6,3.6,0.9,5.4,1.1c1.9,0.2,3.6,0.2,5.3,0c3.4-0.3,6.5-1.3,9.2-2.9
	c2.7-1.7,4.9-3.9,6.4-6.6c0.9-1.4,1.4-3.1,1.8-5c0.2-0.9,0.3-1.9,0.4-3c0-0.6,0.1-1.1,0.1-1.7c0-0.6,0-1.2,0-1.8
	c-0.1-1.6-0.2-3.2-0.4-5.1c0-0.9-0.2-1.9-0.3-2.8c-0.1-1-0.2-2-0.5-3c-0.3-1.8-0.5-3.4-0.8-4.9c0,0,1.4-0.2,3.3-0.5
	c1-0.1,2.1-0.3,3.3-0.5c1.2-0.2,2.4-0.4,3.8-0.7c1.2-0.2,2.5-0.5,3.7-0.8c1.2-0.3,2.3-0.5,3.2-0.8c1.3-0.3,2.3-0.5,2.8-0.7
	c0.1,0.4,0.4,1.3,0.7,2.3c0.2,0.8,0.5,1.8,0.8,2.8c0.1,0.5,0.3,1,0.5,1.6c0.1,0.5,0.3,1,0.5,1.6c0.4,1.1,0.7,2.2,1.1,3.2
	c0.2,0.5,0.3,1,0.5,1.5c0.1,0.4,0.3,0.9,0.4,1.3c0.6,1.6,1,2.7,1,2.7s0.2,0.6,0.5,1.3c0.2,0.6,0.5,1.3,0.5,1.3
	c-1.5,0.5-3,1.2-4.6,1.8c-1,0.3-1.9,0.7-2.8,1.1c-0.9,0.4-1.8,0.8-2.6,1.1c-1.7,0.7-3.2,1.4-4.6,2.2c-0.5,0.3-1,0.6-1.5,0.9
	c-0.5,0.3-1,0.6-1.4,0.9c-0.9,0.6-1.7,1.2-2.4,1.8c-1.5,1.4-2.6,2.7-3.4,4.1c-1.5,2.7-2.4,5.7-2.4,8.9c-0.1,3.2,0.7,6.3,2.1,9.4
	c0.7,1.7,1.7,3.2,2.7,4.6c1,1.4,2.3,2.8,3.7,4.1c0.8,0.7,1.5,1.3,2.3,1.9c0.8,0.7,1.6,1.3,2.5,1.8c0.9,0.5,1.7,1,2.6,1.5
	c0.4,0.2,0.9,0.4,1.4,0.7c0.3,0.1,0.5,0.2,0.7,0.3c0.3,0.1,0.5,0.2,0.7,0.3c0.9,0.4,1.9,0.7,2.9,1.1c0.5,0.1,1,0.2,1.5,0.4
	c0.4,0.1,0.9,0.3,1.4,0.4c1.9,0.4,4,0.7,5.9,0.7c1.8,0,3.7-0.1,5.5-0.3c0.4,0,0.9-0.1,1.3-0.2c0.5-0.1,0.9-0.2,1.3-0.3
	c0.9-0.2,1.6-0.4,2.5-0.8c0.7-0.3,1.5-0.6,2.3-1c0.4-0.1,0.8-0.4,1.1-0.5c0.4-0.2,0.7-0.4,1.1-0.7c1.4-0.8,2.6-1.9,3.7-3
	c2.2-2.2,3.7-4.9,4.5-7.9c0.9-3.2,0.5-7-0.9-11.6c-0.2-0.7-0.5-1.5-0.8-2.3c-0.3-0.7-0.6-1.6-0.9-2.5c-0.8-1.7-1.5-3.5-2.3-5.4
	c-0.7-1.7-1.4-3.1-2-4.5c0,0,1.2-0.6,3.1-1.3c0.5-0.2,0.9-0.4,1.4-0.7c0.5-0.3,1-0.6,1.6-0.8c1.2-0.6,2.4-1.1,3.5-1.7
	c0.2-0.2,0.5-0.3,0.8-0.4c0.2-0.2,0.5-0.3,0.8-0.4c0.6-0.4,1.2-0.6,1.7-0.9c1.1-0.5,2.1-1.1,3-1.5c0.3-0.1,0.5-0.2,0.6-0.3
	c0.2-0.1,0.3-0.2,0.5-0.3c0.4-0.2,0.7-0.4,0.9-0.5c0.4-0.3,0.7-0.5,0.7-0.5s0.3,0.6,0.7,1.2c0.3,0.6,0.7,1.2,0.7,1.2
	s0.2,0.3,0.4,0.7c0.1,0.2,0.3,0.4,0.5,0.7c0.2,0.2,0.4,0.6,0.6,0.9c0.5,0.7,1.1,1.5,1.6,2.4c0.3,0.4,0.7,0.8,1,1.4
	c0.2,0.2,0.3,0.5,0.5,0.7c0.2,0.3,0.3,0.5,0.5,0.7c1.3,1.8,2.6,3.7,3.7,5.1c1,1.4,1.7,2.3,1.7,2.3c-1.2,0.9-2.6,1.9-4,2.9
	c-1.7,1.2-3.2,2.4-4.7,3.5s-2.8,2.2-3.9,3.3c-1.8,1.6-3.2,3.3-4.3,4.8c-1.1,1.6-1.8,3.1-2.2,4.7c-0.3,1.6-0.6,3-0.5,4.6
	c0,0.7,0,1.5,0.2,2.3c0,0.7,0.2,1.5,0.4,2.3c0.3,1.5,0.9,2.8,1.7,4.3c0.8,1.5,1.7,2.8,2.8,4.2c1.1,1.3,2.4,2.5,3.8,3.7
	c1.4,1.2,2.9,2.1,4.6,3c0.4,0.2,0.9,0.4,1.4,0.7c0.5,0.2,0.9,0.4,1.4,0.6c0.8,0.4,1.8,0.7,2.8,1c0.5,0.1,1,0.2,1.5,0.4
	c0.5,0.2,1,0.3,1.5,0.4c1.1,0.2,2,0.3,3.1,0.5c0.5,0.1,1,0.1,1.5,0.2c0.5,0.1,1.1,0.1,1.6,0.1c1,0,2.1,0,3,0c2,0,4-0.4,5.9-0.8
	c0.4-0.1,1-0.3,1.4-0.4c0.5-0.1,1-0.3,1.4-0.4c0.9-0.3,1.7-0.6,2.5-1c1.7-0.7,3.2-1.5,4.6-2.6c1.4-1,2.6-2.1,3.7-3.3
	c1.1-1.2,2-2.5,2.8-3.8c1.5-2.8,2.3-5.8,2.3-8.8c0-3.2-1.3-6.8-3.8-10.9c-0.9-1.3-1.8-2.8-2.9-4.2c-0.5-0.7-1.1-1.5-1.7-2.3
	c-0.6-0.7-1.2-1.5-1.9-2.4c-1.1-1.3-2.2-2.6-3.1-3.8c0,0,0-0.1,0.2-0.1c0-0.1,0.2-0.2,0.5-0.4c0.4-0.3,1.1-0.9,1.9-1.5
	c0.8-0.6,1.7-1.3,2.6-2.1c1-0.7,2-1.6,2.9-2.5c0.5-0.4,0.9-0.8,1.4-1.3c0.5-0.4,0.9-0.8,1.4-1.3c0.9-0.8,1.8-1.6,2.5-2.3
	c0.6-0.7,1.2-1.3,1.6-1.6c0.2-0.2,0.3-0.3,0.4-0.4c0.1,0.1,0.2,0.2,0.4,0.4c0.4,0.3,1,0.9,1.6,1.6c0.7,0.6,1.5,1.4,2.5,2.3
	c0.5,0.4,0.9,0.8,1.4,1.3c0.5,0.4,0.9,0.8,1.4,1.3c0.9,0.8,1.9,1.8,2.9,2.5c0.9,0.8,1.8,1.5,2.6,2.1c0.8,0.6,1.5,1.1,1.9,1.5
	c0.2,0.2,0.4,0.3,0.5,0.4c0.1,0,0.2,0.1,0.2,0.1c-1,1.1-2.1,2.5-3.1,3.8c-0.7,0.8-1.3,1.6-1.9,2.4c-0.6,0.8-1.2,1.5-1.7,2.3
	c-1.1,1.5-2,2.9-2.9,4.2c-2.5,4.1-3.8,7.6-3.8,10.9c0,3.1,0.8,6,2.3,8.8c0.7,1.3,1.6,2.6,2.8,3.8c1.1,1.2,2.3,2.2,3.7,3.3
	c1.4,1,2.9,1.9,4.6,2.6c0.8,0.4,1.7,0.7,2.5,1c0.4,0.1,0.9,0.3,1.4,0.4c0.4,0.1,1,0.3,1.4,0.4c1.9,0.4,3.9,0.8,5.9,0.8
	c0.9,0,2,0,3,0c0.4,0,1,0,1.6-0.1c0.5-0.1,1-0.1,1.5-0.2c1.1-0.2,2-0.3,3.1-0.5c0.5-0.1,1-0.2,1.5-0.4c0.5-0.2,1-0.3,1.5-0.4
	c1-0.3,1.9-0.7,2.8-1c0.5-0.2,0.9-0.4,1.4-0.6c0.4-0.2,0.9-0.4,1.4-0.7c1.7-0.9,3.2-1.8,4.6-3c1.4-1.2,2.7-2.4,3.8-3.7
	c1.1-1.3,2-2.7,2.8-4.2s1.4-2.9,1.7-4.3c0.2-0.8,0.4-1.6,0.4-2.3c0.1-0.8,0.1-1.6,0.2-2.3c0-1.5-0.2-3-0.5-4.6
	c-0.5-1.6-1.1-3.2-2.2-4.7c-1.1-1.6-2.5-3.2-4.3-4.8c-1.1-1.1-2.4-2.2-3.9-3.3c-1.5-1.1-3-2.3-4.7-3.5c-1.4-1-2.8-2-4-2.9
	c0,0,0.8-0.9,1.7-2.3c1-1.4,2.4-3.3,3.7-5.1c0.2-0.2,0.3-0.4,0.5-0.7c0.2-0.2,0.3-0.5,0.5-0.7c0.3-0.5,0.6-0.9,1-1.4
	c0.5-0.9,1.1-1.7,1.6-2.4c0.2-0.4,0.4-0.7,0.6-0.9c0.2-0.3,0.4-0.6,0.5-0.7c0.2-0.4,0.4-0.7,0.4-0.7s0.4-0.6,0.7-1.2
	c0.4-0.6,0.7-1.2,0.7-1.2s0.3,0.2,0.7,0.5c0.2,0.1,0.5,0.3,0.9,0.5c0.2,0.1,0.3,0.2,0.5,0.3c0.2,0.1,0.4,0.2,0.6,0.3
	c0.8,0.4,1.9,1,3,1.5c0.5,0.3,1.1,0.5,1.7,0.9c0.3,0.2,0.6,0.2,0.8,0.4c0.3,0.2,0.6,0.2,0.8,0.4c1.2,0.6,2.4,1.1,3.5,1.7
	c0.6,0.2,1.1,0.5,1.6,0.8c0.5,0.3,1,0.5,1.4,0.7c1.8,0.8,3.1,1.3,3.1,1.3c-0.6,1.4-1.4,2.9-2,4.5c-0.9,1.9-1.6,3.7-2.3,5.4
	c-0.3,0.9-0.6,1.7-0.9,2.5c-0.2,0.8-0.6,1.6-0.8,2.3c-1.4,4.6-1.8,8.4-0.9,11.6c0.8,3,2.3,5.7,4.5,7.9c1.1,1.1,2.3,2.2,3.7,3
	c0.4,0.2,0.7,0.4,1.1,0.7c0.3,0.2,0.7,0.4,1.1,0.5c0.8,0.4,1.6,0.7,2.3,1c0.9,0.3,1.6,0.6,2.5,0.8c0.4,0.1,0.8,0.2,1.3,0.3
	c0.4,0.1,0.9,0.2,1.3,0.2c1.8,0.3,3.7,0.3,5.5,0.3c1.9-0.1,4-0.3,5.9-0.7c0.5-0.1,1-0.2,1.4-0.4c0.5-0.2,1-0.3,1.5-0.4
	c1-0.3,1.9-0.7,2.9-1.1c0.3-0.1,0.5-0.2,0.7-0.3c0.3-0.1,0.4-0.2,0.7-0.3c0.4-0.2,0.9-0.4,1.4-0.7c0.9-0.5,1.7-1,2.6-1.5
	s1.7-1.1,2.5-1.8c0.8-0.6,1.5-1.2,2.3-1.9c1.4-1.2,2.6-2.7,3.7-4.1c1-1.4,2-2.9,2.7-4.6c1.4-3.1,2.2-6.2,2.1-9.4
	c0-3.2-0.9-6.2-2.4-8.9c-0.8-1.4-1.9-2.7-3.4-4.1c-0.7-0.6-1.5-1.2-2.4-1.8c-0.4-0.3-0.9-0.6-1.4-0.9c-0.5-0.3-1-0.6-1.5-0.9
	c-1.4-0.8-3-1.5-4.6-2.2c-0.8-0.4-1.7-0.8-2.6-1.1c-0.9-0.4-1.8-0.8-2.8-1.1c-1.6-0.6-3.1-1.2-4.6-1.8c0,0,0.3-0.7,0.5-1.3
	c0.3-0.7,0.5-1.3,0.5-1.3s0.4-1.1,1-2.7c0.1-0.4,0.3-0.9,0.4-1.3c0.2-0.5,0.3-1,0.5-1.5c0.3-1,0.7-2,1.1-3.2c0.1-0.5,0.3-1,0.5-1.6
	c0.1-0.5,0.3-1,0.5-1.6c0.3-1,0.6-2,0.8-2.8c0.3-1,0.6-1.9,0.7-2.3c0.5,0.1,1.5,0.4,2.8,0.7c1,0.3,2,0.5,3.2,0.8
	c1.2,0.2,2.5,0.5,3.7,0.8c1.3,0.3,2.6,0.5,3.8,0.7c1.2,0.2,2.3,0.4,3.3,0.5c1.9,0.3,3.3,0.5,3.3,0.5c-0.3,1.5-0.5,3.1-0.8,4.9
	c-0.2,1-0.3,2-0.5,3c-0.1,1-0.3,1.9-0.3,2.8c-0.2,1.9-0.3,3.5-0.4,5.1c0,0.6,0,1.2,0,1.8c0,0.6,0.1,1.1,0.1,1.7
	c0.1,1.1,0.2,2.1,0.4,3c0.4,1.9,0.9,3.5,1.8,5c1.5,2.7,3.7,4.9,6.4,6.6c2.6,1.6,5.8,2.6,9.2,2.9c1.7,0.2,3.4,0.1,5.3,0
	c1.7-0.2,3.6-0.6,5.4-1.1c1-0.3,1.8-0.6,2.8-1c0.9-0.4,1.8-0.8,2.8-1.2c0.9-0.5,1.7-1,2.6-1.5c0.4-0.2,0.8-0.6,1.3-0.8
	c0.3-0.1,0.4-0.2,0.6-0.5c0.3-0.1,0.4-0.3,0.6-0.5c0.8-0.6,1.6-1.3,2.4-1.9c0.4-0.3,0.8-0.7,1.1-1.1c0.4-0.3,0.7-0.8,1-1
	c1.4-1.5,2.5-3.1,3.6-4.7c1-1.6,1.8-3.3,2.5-4.9c0.2-0.5,0.3-0.9,0.5-1.2c0.1-0.4,0.3-0.9,0.4-1.3c0.2-0.8,0.4-1.6,0.6-2.6
	c0.2-0.9,0.3-1.7,0.3-2.5c0-0.4,0.1-0.9,0.1-1.2c0-0.4,0-0.8,0-1.3c-0.1-1.6-0.3-3.2-0.7-4.7c-0.9-3.1-2.4-5.8-4.5-7.9
	c-2.3-2.4-5.7-4-10.4-5.1c-0.8-0.1-1.6-0.4-2.4-0.5c-0.8-0.2-1.7-0.3-2.6-0.5c-1.8-0.3-3.8-0.5-5.8-0.7c-1.7-0.2-3.4-0.3-4.9-0.5
	c0,0,0.2-1.1,0.3-2.8c0.2-1.7,0.4-4,0.6-6.2c0-0.6,0.1-1.1,0.1-1.7c0.1-0.3,0-0.6,0.1-0.9c0-0.2,0-0.6,0-0.8c0.1-1.1,0.1-2,0.2-2.9
	c0.1-1.7,0.1-2.8,0.1-2.8s0-0.1,0-0.4c0-0.2,0-0.6,0-0.9c0-0.7,0-1.4,0-1.4s1.3,0,3.2,0c0.9,0,2.1,0,3.3-0.1c1.3,0,2.5-0.1,3.8-0.2
	c0.7,0,1.3-0.1,1.9-0.2c0.7,0,1.3-0.2,1.9-0.2c1.2-0.1,2.4-0.2,3.4-0.3c1-0.1,1.8-0.2,2.4-0.2c0.5-0.1,0.9-0.1,0.9-0.1
	c0.2,1.5,0.3,3.2,0.5,4.9c0.3,2.1,0.5,4,0.7,5.8c0.2,1.8,0.6,3.5,0.9,5c0.5,2.3,1.2,4.4,2,6.1s1.8,3.1,2.9,4.3
	c1.1,1.1,2.3,2,3.7,2.8c0.7,0.4,1.3,0.7,2.1,1s1.5,0.5,2.2,0.8c1.5,0.4,3,0.7,4.6,0.7c1.7,0.1,3.2,0,5-0.3c1.7-0.3,3.4-0.8,5.1-1.4
	c1.7-0.6,3.3-1.5,4.9-2.5c0.4-0.2,0.9-0.5,1.3-0.8c0.4-0.2,0.8-0.6,1.2-0.9c0.8-0.6,1.6-1.3,2.3-1.9c0.4-0.3,0.8-0.7,1.1-1.1
	c0.4-0.3,0.7-0.8,1.1-1.1c0.7-0.8,1.3-1.6,2-2.4c0.3-0.4,0.6-0.8,0.9-1.2c0.3-0.4,0.6-0.8,0.9-1.3c0.5-0.9,1.1-1.8,1.5-2.6
	c0.9-1.8,1.7-3.6,2.3-5.5c0.1-0.4,0.3-0.9,0.4-1.4c0.1-0.4,0.2-0.9,0.4-1.4c0.2-0.9,0.3-1.8,0.4-2.7c0.3-1.8,0.3-3.5,0.1-5.3
	c-0.2-1.7-0.4-3.3-1-4.9c-0.5-1.6-1.1-2.9-1.9-4.3c-1.6-2.8-3.9-4.9-6.5-6.5c-3-1.5-6.8-2.1-11.6-2c-1.6,0-3.3,0.1-5.1,0.4
	c-0.9,0.1-1.8,0.2-2.8,0.3c-1,0.1-2,0.2-3,0.4c-1.7,0.3-3.4,0.6-4.8,0.8c0,0,0-0.2,0-0.4c-0.1-0.3-0.1-0.6-0.1-1
	c-0.1-0.8-0.3-1.5-0.3-1.5s-0.2-1.2-0.4-2.8c-0.1-0.4-0.1-0.8-0.2-1.4c-0.1-0.5-0.2-0.9-0.3-1.5c-0.2-1-0.4-2.2-0.6-3.2
	c-0.1-0.5-0.3-1.1-0.4-1.6c-0.1-0.5-0.5-1.6-0.6-2.1c-0.2-1-0.4-2-0.7-2.7c-0.2-0.8-0.4-1.5-0.4-2c-0.1-0.2-0.1-0.3-0.1-0.4
	c0.4-0.1,1.4-0.4,2.8-0.8c0.5-0.2,1-0.3,1.5-0.4c0.5-0.2,1.1-0.3,1.7-0.5c1.2-0.3,2.5-1,3.8-1.4c0.6-0.2,1.3-0.4,1.8-0.6
	s1.1-0.4,1.8-0.7c1.1-0.4,2.2-0.8,3.2-1.1c0.5-0.2,0.9-0.3,1.2-0.5c0.4-0.1,0.7-0.3,1-0.3c0.6-0.2,0.8-0.4,0.8-0.4
	c0.3,0.7,0.5,1.5,0.8,2.2c0.3,0.7,0.5,1.5,0.9,2.4c0.3,1,0.7,1.9,1.1,2.8c0.2,0.5,0.4,0.9,0.5,1.3c0.2,0.5,0.4,0.8,0.5,1.3
	c0.7,1.7,1.5,3.2,2.2,4.6c0.6,1,1.1,2,1.8,2.9c0.6,0.9,1.2,1.7,1.8,2.4c1.3,1.5,2.5,2.6,4,3.4c2.7,1.5,5.6,2.3,8.9,2.4
	c0.8,0,1.6,0,2.4-0.1c0.8-0.1,1.6-0.2,2.3-0.4c1.6-0.3,3.2-0.9,4.8-1.6c3.1-1.4,6-3.6,8.6-6.3c0.6-0.7,1.4-1.5,1.9-2.3
	c0.6-0.8,1.2-1.6,1.7-2.5c0.5-0.9,1.1-1.8,1.5-2.6c0.4-0.9,0.9-1.8,1.3-2.8c0.4-0.9,0.7-1.9,1-2.9c0.3-1,0.6-2,0.8-2.9
	c0.3-1,0.4-2,0.5-2.9c0.1-1,0.2-2,0.3-2.9c0-0.9,0.1-1.9,0-2.8c-0.1-0.9-0.2-1.9-0.3-2.7c-0.1-0.8-0.3-1.8-0.6-2.6
	c-0.2-0.8-0.5-1.7-0.7-2.5c-0.6-1.6-1.3-3.1-2.2-4.4c-0.4-0.7-0.9-1.3-1.4-2c-0.5-0.6-1-1.2-1.6-1.7c-2.3-2.2-4.9-3.8-7.9-4.6
	c-1.6-0.5-3.4-0.6-5.2-0.5c-1,0.1-2,0.2-3,0.4c-0.5,0.1-1,0.2-1.6,0.4c-0.5,0.1-1.1,0.3-1.7,0.5c-1.5,0.4-3.1,1-4.8,1.6
	c-0.5,0.2-0.8,0.4-1.3,0.5c-0.5,0.2-0.8,0.4-1.3,0.5c-0.9,0.4-1.8,0.8-2.8,1.2c-0.8,0.4-1.6,0.7-2.3,1.1c-0.7,0.3-1.4,0.7-2.2,1
	c0,0-0.1-0.3-0.3-0.7c-0.2-0.5-0.5-1.1-0.9-1.9c-0.4-0.8-0.8-1.8-1.2-2.7c-0.2-0.4-0.5-1-0.7-1.4c-0.3-0.5-0.5-1-0.8-1.5
	c-0.5-1-1.1-2-1.5-3c-0.5-1-0.9-1.8-1.4-2.6c-0.8-1.5-1.3-2.5-1.3-2.5s-0.3-0.6-0.6-1.1c-0.3-0.6-0.6-1.1-0.6-1.1s1.1-0.6,2.7-1.7
	c0.9-0.5,1.8-1.1,2.8-1.7c1-0.7,2.1-1.3,3.2-2.1c0.6-0.3,1.1-0.7,1.6-1c0.3-0.1,0.5-0.3,0.8-0.6c0.3-0.1,0.5-0.4,0.7-0.5
	c1-0.7,2-1.4,2.7-1.9c0.8-0.6,1.5-1.1,1.9-1.5c0.5-0.4,0.7-0.5,0.7-0.5c0.5,0.6,0.9,1.3,1.4,2c0.5,0.6,1,1.4,1.4,2.1
	c0.6,0.8,1.2,1.6,1.8,2.4c0.3,0.4,0.6,0.8,0.9,1.1c0.3,0.4,0.5,0.7,0.9,1.1c1.2,1.4,2.3,2.7,3.4,3.8c0.4,0.5,0.9,0.9,1.2,1.3
	c0.4,0.3,0.8,0.8,1.2,1.1c0.8,0.7,1.6,1.3,2.4,1.9c1.5,1.1,3.2,1.9,4.8,2.2c3,0.8,6,0.8,9.2,0.1c0.7-0.2,1.5-0.4,2.2-0.7
	c0.7-0.3,1.5-0.6,2.2-1c1.4-0.7,2.8-1.6,4.1-2.7c0.7-0.5,1.3-1.1,1.9-1.8c0.6-0.6,1.2-1.3,1.8-1.9c0.5-0.7,1.1-1.5,1.6-2.2
	c0.5-0.7,0.9-1.6,1.4-2.4c0.4-0.8,0.8-1.8,1.2-2.7c0.4-0.9,0.7-1.8,1-2.8c0.3-1,0.6-2,0.8-2.9c0.3-1,0.4-2,0.6-3
	c0.1-1,0.2-2,0.3-3.1c0-1,0-2,0-3c0-1-0.1-2-0.2-3C499.7,273,499.5,272.1,499.2,271.1z M467,219c1.6-2,2.8-3.5,3.9-4.7
	c0.5-0.6,1-1.2,1.5-1.6c0.5-0.4,0.8-0.8,1.2-1.1c0.7-0.6,1.3-1,1.6-1.2c0.5-0.2,0.6-0.2,0.6-0.2c1-0.2,2.1-0.2,3.1,0.2
	c0.5,0.2,1,0.3,1.5,0.6c0.4,0.2,0.9,0.6,1.4,1c1.7,1.6,3,3.9,3.3,6.7c0,0.7,0.1,1.4,0.1,2c0,0.7-0.1,1.3-0.2,2
	c-0.3,1.2-0.8,2.4-1.3,3.5c-1.3,2-3.2,3.2-5.3,3.4c0,0-0.2,0-0.6-0.1c-0.4-0.1-1-0.3-1.8-0.7c-0.8-0.4-2-0.9-3.3-1.8
	c-0.6-0.5-1.4-0.9-2.2-1.5c-0.4-0.2-0.9-0.5-1.3-0.9c-0.4-0.3-0.9-0.6-1.4-1c-1-0.7-1.8-1.4-2.7-2C465.7,220.8,466.3,219.9,467,219z
	 M451.4,163.9c0.2-0.6,0.5-1,0.7-1.6c0.3-0.5,0.5-1,0.7-1.4c0.4-0.9,0.8-1.8,1.2-2.4c0.8-1.4,1.4-2.5,2-3.3c0.5-0.7,0.9-1.2,1.2-1.5
	c0.3-0.3,0.5-0.4,0.5-0.4c1.9-0.9,4.2-0.8,6.3,0.3c1.2,0.6,2.1,1.3,3,2.3c0.4,0.5,0.8,1,1.2,1.6c0.4,0.6,0.7,1.2,0.9,1.8
	c1.1,2.5,1.2,5.1,0.5,7.4c-0.2,0.6-0.4,1.1-0.7,1.6c-0.2,0.4-0.6,0.9-1,1.3c-0.7,0.8-1.6,1.4-2.6,1.7c0,0.1-0.3,0.1-0.6,0.1
	c-0.4,0-1,0-2-0.2c-0.4,0-0.9-0.2-1.6-0.3c-0.6-0.2-1.3-0.4-2.1-0.6c-1.6-0.5-3.5-1.1-5.8-2c-1.1-0.4-2.1-0.9-3.1-1.2
	C450.6,166,451,164.9,451.4,163.9z M422.1,114.6c0.4-2.4,0.7-4.5,1-6c0.4-1.6,0.8-2.8,1.1-3.7c0.3-1,0.6-1.5,0.8-1.8
	c0.2-0.3,0.4-0.5,0.4-0.5c1.7-1.3,3.9-1.9,6.2-1.4c1.2,0.3,2.4,0.7,3.5,1.4c1.1,0.7,2.1,1.6,2.9,2.7c0.4,0.6,0.8,1,1.1,1.7
	c0.2,0.6,0.5,1.2,0.7,1.8c0.5,1.2,0.6,2.4,0.5,3.7c-0.1,2.5-1.2,4.5-2.9,5.6c0,0-0.2,0.1-0.6,0.2c-0.4,0.1-1,0.3-2,0.4
	c-0.5,0.1-1.1,0.1-1.7,0.1c-0.4,0-0.7,0-1,0c-0.3-0.1-0.7,0-1.1-0.1c-1.6,0-3.6-0.2-6.1-0.5c-1.1-0.1-2.2-0.2-3.3-0.4
	C421.8,116.8,421.9,115.7,422.1,114.6z M75,118.2c-2.5,0.3-4.5,0.5-6.1,0.5c-0.4,0-0.8,0-1.1,0.1c-0.4,0-0.7,0-1,0
	c-0.6,0-1.2,0-1.7-0.1c-0.9,0-1.5-0.3-2-0.4c-0.4-0.1-0.6-0.2-0.6-0.2c-1.7-1.1-2.7-3.2-2.9-5.6c0-1.3,0.1-2.5,0.5-3.7
	c0.2-0.6,0.5-1.2,0.7-1.8c0.3-0.6,0.7-1.1,1.1-1.7c0.8-1,1.8-1.9,2.9-2.7c1.1-0.7,2.2-1.2,3.5-1.4c2.3-0.5,4.5,0.1,6.2,1.4
	c0,0,0.2,0.1,0.4,0.5c0.2,0.3,0.5,0.9,0.8,1.8c0.3,0.9,0.7,2,1.1,3.7c0.3,1.6,0.7,3.6,1,6c0.2,1.2,0.4,2.2,0.4,3.3
	C77.2,118,76.1,118.1,75,118.2z M46.8,168.2c-2.2,0.9-4.2,1.6-5.8,2c-0.8,0.2-1.5,0.4-2.1,0.6c-0.6,0.1-1.1,0.3-1.6,0.3
	c-0.9,0.2-1.5,0.2-2,0.2c-0.4,0-0.6,0-0.6-0.1c-1-0.3-1.9-1-2.6-1.7c-0.3-0.4-0.7-0.9-1-1.3c-0.3-0.5-0.5-1-0.7-1.6
	c-0.8-2.3-0.6-4.9,0.5-7.4c0.2-0.6,0.6-1.2,0.9-1.8c0.4-0.6,0.7-1.1,1.2-1.6c0.8-0.9,1.8-1.7,3-2.3c2.1-1.1,4.4-1.2,6.3-0.3
	c0,0,0.2,0.1,0.5,0.4c0.3,0.3,0.7,0.8,1.2,1.5c0.5,0.7,1.2,1.9,2,3.3c0.4,0.7,0.8,1.5,1.2,2.4c0.2,0.4,0.4,0.9,0.7,1.4
	c0.2,0.6,0.5,1,0.7,1.6c0.5,1,0.8,2.1,1.3,3.1C48.9,167.3,47.9,167.8,46.8,168.2z M32.3,223.7c-0.5,0.4-1,0.7-1.4,1
	c-0.5,0.4-0.9,0.6-1.3,0.9c-0.8,0.6-1.6,1-2.2,1.5c-1.3,0.9-2.5,1.4-3.3,1.8c-0.8,0.4-1.4,0.6-1.8,0.7c-0.4,0.1-0.6,0.1-0.6,0.1
	c-2.1-0.2-4-1.4-5.3-3.4c-0.5-1.1-1.1-2.3-1.3-3.5c-0.1-0.6-0.2-1.3-0.2-2c0-0.7,0.1-1.3,0.1-2c0.3-2.7,1.6-5.1,3.3-6.7
	c0.5-0.4,0.9-0.8,1.4-1c0.5-0.3,1-0.5,1.5-0.6c1.1-0.4,2.1-0.4,3.1-0.2c0,0,0.1,0,0.6,0.2c0.3,0.2,0.9,0.5,1.6,1.2
	c0.4,0.2,0.7,0.6,1.2,1.1c0.5,0.4,1,0.9,1.5,1.6c1.1,1.2,2.4,2.7,3.9,4.7c0.7,0.9,1.4,1.8,2,2.7C34.2,222.3,33.3,223,32.3,223.7z
	 M33,281c-1.6,2-2.8,3.5-3.9,4.7c-0.5,0.6-1,1.2-1.5,1.6c-0.5,0.4-0.8,0.8-1.2,1.1c-0.7,0.6-1.3,1-1.6,1.2c-0.5,0.2-0.6,0.2-0.6,0.2
	c-1,0.2-2.1,0.2-3.1-0.2c-0.5-0.2-1-0.3-1.5-0.6c-0.4-0.2-0.9-0.6-1.4-1c-1.7-1.6-3-3.9-3.3-6.7c0-0.7-0.1-1.4-0.1-2
	c0-0.7,0.1-1.3,0.2-2c0.3-1.2,0.8-2.4,1.3-3.5c1.3-2,3.2-3.2,5.3-3.4c0,0,0.2,0,0.6,0.1c0.4,0.1,1,0.3,1.8,0.7
	c0.8,0.4,2,0.9,3.3,1.8c0.6,0.5,1.4,0.9,2.2,1.5c0.4,0.2,0.9,0.5,1.3,0.9c0.4,0.3,0.9,0.6,1.4,1c1,0.7,1.8,1.4,2.7,2
	C34.3,279.2,33.7,280.1,33,281z M48.6,336.1c-0.2,0.6-0.5,1-0.7,1.6c-0.3,0.5-0.5,1-0.7,1.4c-0.4,0.9-0.8,1.8-1.2,2.4
	c-0.8,1.4-1.4,2.5-2,3.3c-0.5,0.7-0.9,1.2-1.2,1.5c-0.3,0.3-0.5,0.4-0.5,0.4c-1.9,0.9-4.2,0.8-6.3-0.3c-1.2-0.6-2.1-1.3-3-2.3
	c-0.4-0.5-0.8-1-1.2-1.6c-0.4-0.6-0.7-1.2-0.9-1.8c-1.1-2.5-1.2-5.1-0.5-7.4c0.2-0.6,0.4-1.1,0.7-1.6c0.2-0.4,0.6-0.9,1-1.3
	c0.7-0.8,1.6-1.4,2.6-1.7c0-0.1,0.3-0.1,0.6-0.1c0.4,0,1,0,2,0.2c0.4,0,0.9,0.2,1.6,0.3c0.6,0.2,1.3,0.4,2.1,0.6
	c1.6,0.5,3.5,1.1,5.8,2c1.1,0.4,2.1,0.9,3.1,1.2C49.4,334,49,335.1,48.6,336.1z M77.9,385.4c-0.4,2.4-0.7,4.5-1,6
	c-0.4,1.6-0.8,2.8-1.1,3.7c-0.3,1-0.6,1.5-0.8,1.8c-0.2,0.3-0.4,0.5-0.4,0.5c-1.7,1.3-3.9,1.9-6.2,1.4c-1.2-0.3-2.4-0.7-3.5-1.4
	c-1.1-0.7-2.1-1.6-2.9-2.7c-0.4-0.6-0.8-1-1.1-1.7c-0.2-0.6-0.5-1.2-0.7-1.8c-0.5-1.2-0.6-2.4-0.5-3.7c0.1-2.5,1.2-4.5,2.9-5.6
	c0,0,0.2-0.1,0.6-0.2s1-0.3,2-0.4c0.5-0.1,1.1-0.1,1.7-0.1c0.4,0,0.7,0,1,0c0.3,0.1,0.7,0,1.1,0.1c1.6,0,3.6,0.2,6.1,0.5
	c1.1,0.1,2.2,0.2,3.3,0.4C78.2,383.2,78.1,384.3,77.9,385.4z M425,381.8c2.5-0.3,4.5-0.5,6.1-0.5c0.4,0,0.8,0,1.1-0.1
	c0.4,0,0.7,0,1,0c0.6,0,1.2,0,1.7,0.1c0.9,0,1.5,0.3,2,0.4c0.4,0.1,0.6,0.2,0.6,0.2c1.7,1.1,2.7,3.2,2.9,5.6c0,1.3-0.1,2.5-0.5,3.7
	c-0.2,0.6-0.5,1.2-0.7,1.8c-0.3,0.6-0.7,1.1-1.1,1.7c-0.8,1-1.8,1.9-2.9,2.7c-1.1,0.7-2.2,1.2-3.5,1.4c-2.3,0.5-4.5-0.1-6.2-1.4
	c0,0-0.2-0.1-0.4-0.5c-0.2-0.3-0.5-0.9-0.8-1.8c-0.3-0.9-0.7-2-1.1-3.7c-0.3-1.6-0.7-3.6-1-6c-0.2-1.2-0.4-2.2-0.4-3.3
	C422.8,382,423.9,381.9,425,381.8z M453.2,331.8c2.2-0.9,4.2-1.6,5.8-2c0.8-0.2,1.5-0.4,2.1-0.6c0.6-0.1,1.1-0.3,1.6-0.3
	c0.9-0.2,1.5-0.2,2-0.2c0.4,0,0.6,0,0.6,0.1c1,0.3,1.9,1,2.6,1.7c0.3,0.4,0.7,0.9,1,1.3c0.3,0.5,0.5,1,0.7,1.6
	c0.8,2.3,0.6,4.9-0.5,7.4c-0.2,0.6-0.6,1.2-0.9,1.8c-0.4,0.6-0.7,1.1-1.2,1.6c-0.8,0.9-1.8,1.7-3,2.3c-2.1,1.1-4.4,1.2-6.3,0.3
	c0,0-0.2-0.1-0.5-0.4c-0.3-0.3-0.7-0.8-1.2-1.5c-0.5-0.7-1.2-1.9-2-3.3c-0.4-0.7-0.8-1.5-1.2-2.4c-0.2-0.4-0.4-0.9-0.7-1.4
	c-0.2-0.6-0.5-1-0.7-1.6c-0.5-1-0.8-2.1-1.3-3.1C451.1,332.7,452.1,332.2,453.2,331.8z M380.7,64.6c0.1-0.9,0.2-1.5,0.3-1.9
	c0.1-0.4,0.2-0.6,0.2-0.6c1.2-1.7,3.3-2.9,5.6-3c1.2-0.1,2.5,0.1,3.7,0.5c0.6,0.2,1.1,0.4,1.7,0.8c0.6,0.3,1.1,0.6,1.7,1.1
	c2.1,1.7,3.6,3.9,4.1,6.3c0.5,2.4,0,4.6-1.4,6.3c0,0.1-0.1,0.2-0.5,0.4c-0.3,0.2-0.9,0.5-1.8,0.8c-0.9,0.3-2,0.7-3.6,0.9
	c-0.8,0.2-1.6,0.4-2.6,0.6c-1,0.1-2,0.3-3.3,0.5c-1.1,0.2-2.3,0.3-3.3,0.4c-0.1-1-0.3-2.1-0.4-3.3c-0.3-2.5-0.5-4.4-0.5-6.1
	C380.6,66.7,380.6,65.5,380.7,64.6z M328,35.3c0.1-0.4,0.1-0.6,0.1-0.6c0.7-2,2.4-3.6,4.7-4.4c2.3-0.9,5-0.6,7.5,0.4
	c0.7,0.3,1.2,0.6,1.8,0.9c0.5,0.3,1.1,0.7,1.5,1.1c0.9,0.9,1.7,1.8,2.3,2.9c1.1,2.1,1.2,4.4,0.1,6.4c0,0-0.1,0.2-0.4,0.5
	c-0.3,0.3-0.8,0.7-1.5,1.2c-0.8,0.6-1.7,1.2-3.2,2c-1.5,0.8-3.2,1.6-5.5,2.6c-1.1,0.4-2.1,0.9-3,1.3c-0.4-0.9-0.8-2-1.3-3
	c-0.5-1.1-0.9-2.1-1.2-3.1c-0.3-1-0.6-1.8-0.8-2.6c-0.5-1.6-0.7-2.7-0.9-3.6C328,36.3,327.9,35.8,328,35.3z M335.7,110.9
	c-0.1,1.4-0.2,2.6-0.4,3.5s-0.4,1.4-0.5,1.8c-0.1,0.4-0.2,0.6-0.2,0.6c-1,1.8-2.7,3.2-4.6,3.8c-0.9,0.3-1.8,0.5-2.7,0.4
	c-0.8,0-1.6-0.3-2.3-0.6c-0.7-0.4-1.2-1-1.7-1.7c-0.4-0.7-0.8-1.6-1-2.5c-0.3-1.9,0-4,1-5.9c0,0,0.1-0.2,0.4-0.5
	c0.2-0.3,0.7-0.8,1.3-1.3c0.7-0.6,1.6-1.3,2.8-2.1c0.6-0.4,1.3-0.8,2.1-1.2c0.8-0.4,1.8-0.8,2.7-1.3c0.8-0.4,1.6-0.7,2.4-1
	c0.1,0.9,0.2,1.7,0.3,2.6c0.2,1.1,0.2,2.1,0.2,3c0.1,0.5,0.1,0.9,0.1,1.3C335.7,110.1,335.7,110.5,335.7,110.9z M289.3,89
	c0.3-0.4,0.6-0.7,1-1c0.3-0.4,0.8-0.7,1.2-1.1c0.7-0.6,1.5-1.2,2.3-1.8c0.3,0.9,0.7,1.8,1.1,2.7c0.7,2.2,1.3,3.8,1.7,5.4
	c0.1,0.8,0.2,1.4,0.4,2c0.1,0.5,0.1,1,0.2,1.5c0.1,0.9,0.1,1.4,0.1,1.9c-0.1,0.4-0.1,0.6-0.1,0.6c-0.2,1-0.8,2-1.4,2.8
	c-0.6,0.8-1.3,1.5-2.1,2c-0.8,0.6-1.7,0.9-2.5,1.1c-0.4,0.1-0.8,0.1-1.2,0.1c-0.4,0-0.9-0.1-1.3-0.2c-0.8-0.1-1.6-0.6-2.2-1.2
	c-0.7-0.6-1.2-1.3-1.6-2.2c-0.4-0.9-0.7-1.9-0.8-2.9c-0.1-1-0.1-2.1,0.2-3.1c0,0,0-0.2,0.2-0.6c0.1-0.4,0.4-0.9,0.9-1.7
	c0.5-0.7,1.3-1.6,2.2-2.7C288,90.2,288.6,89.6,289.3,89z M269.5,21.6c0.2-2.2,1.4-4.1,3.5-5.4c1.1-0.7,2.3-1.1,3.4-1.4
	c0.6-0.2,1.2-0.2,1.9-0.3c0.7,0,1.3,0.1,2,0.1c1.3,0.2,2.6,0.6,3.7,1.1c1.1,0.6,2.2,1.4,3,2.3c1.6,1.8,2.3,4,1.9,6.1
	c0,0,0,0.2-0.3,0.7c-0.2,0.3-0.5,1-1.2,1.6c-0.6,0.8-1.4,1.7-2.6,2.8c-1.2,1.1-2.7,2.4-4.7,3.9c-0.9,0.6-1.8,1.3-2.6,2
	c-0.6-0.8-1.3-1.8-2-2.6c-1.5-2-2.7-3.6-3.5-5c-0.3-0.3-0.5-0.6-0.6-0.9s-0.4-0.6-0.5-0.9c-0.4-0.6-0.6-1-0.8-1.5
	c-0.3-0.9-0.5-1.5-0.7-1.9C269.5,21.8,269.5,21.6,269.5,21.6z M243.3,91.3c0.1-0.4,0.3-1,0.6-1.8c0.3-0.9,0.8-1.8,1.4-3.1
	c0.3-0.6,0.7-1.3,1.2-2.1c0.5-0.7,1-1.6,1.7-2.5c0.3-0.4,0.6-0.8,0.9-1.2c0.1-0.2,0.3-0.4,0.5-0.6c0.1-0.2,0.2-0.3,0.4-0.5
	c0.2,0.2,0.3,0.3,0.4,0.5c0.1,0.2,0.3,0.4,0.5,0.6c0.3,0.4,0.6,0.8,0.9,1.2c0.7,0.8,1.2,1.7,1.7,2.5c0.5,0.7,0.9,1.4,1.2,2.1
	c0.6,1.3,1.1,2.3,1.4,3.1c0.3,0.9,0.5,1.4,0.6,1.8c0.1,0.4,0.1,0.6,0.1,0.6c-0.2,2.1-0.9,4.1-2.2,5.6c-0.2,0.1-0.3,0.4-0.5,0.5
	c-0.1,0.3-0.3,0.4-0.5,0.5c-0.4,0.2-0.7,0.5-1.1,0.7c-0.4,0.2-0.8,0.4-1.2,0.5c-0.4,0.1-0.8,0.2-1.2,0.2c-0.4,0-0.8-0.1-1.2-0.2
	c-0.4-0.1-0.8-0.2-1.2-0.5c-0.4-0.2-0.7-0.5-1.1-0.7c-0.2-0.1-0.4-0.2-0.5-0.5c-0.2-0.1-0.3-0.4-0.5-0.5c-1.3-1.5-2-3.5-2.2-5.6
	C243.2,91.9,243.2,91.7,243.3,91.3z M211.3,24.8c-0.2-0.4-0.3-0.7-0.3-0.7c-0.4-2.1,0.3-4.2,1.9-6.1c0.8-0.9,1.8-1.6,3-2.3
	c1.2-0.6,2.5-1,3.7-1.1c0.7,0,1.3-0.1,2-0.1c0.7,0,1.3,0.1,1.9,0.3c1.2,0.2,2.4,0.7,3.4,1.4c2.1,1.4,3.2,3.2,3.5,5.4
	c0,0,0,0.2-0.1,0.6c-0.1,0.4-0.3,1-0.7,1.9c-0.2,0.5-0.4,0.9-0.8,1.5c-0.2,0.3-0.4,0.6-0.5,0.9c-0.2,0.3-0.3,0.6-0.6,0.9
	c-0.8,1.4-2,3-3.5,5c-0.7,0.8-1.4,1.8-2,2.6c-0.8-0.7-1.7-1.3-2.6-2c-1.9-1.5-3.5-2.9-4.7-3.9c-1.2-1.1-2-1.9-2.6-2.8
	C211.8,25.7,211.5,25.1,211.3,24.8z M202.9,96.7c0.1-0.5,0.1-1,0.2-1.5c0.1-0.5,0.2-1.2,0.4-2c0.4-1.5,0.9-3.2,1.7-5.4
	c0.4-0.9,0.8-1.8,1.1-2.7c0.8,0.6,1.6,1.2,2.3,1.8c0.4,0.3,0.8,0.7,1.2,1.1c0.4,0.3,0.7,0.6,1,1c0.7,0.6,1.3,1.2,1.7,1.8
	c1,1.1,1.7,1.9,2.2,2.7c0.5,0.7,0.8,1.3,0.9,1.7c0.2,0.3,0.2,0.6,0.2,0.6c0.2,1,0.3,2.1,0.2,3.1c-0.1,1-0.4,2-0.8,2.9
	c-0.4,0.9-0.9,1.6-1.6,2.2c-0.6,0.6-1.4,1-2.2,1.2c-0.4,0.1-0.8,0.1-1.3,0.2c-0.4,0-0.8,0-1.2-0.1c-0.8-0.2-1.7-0.5-2.5-1.1
	c-0.8-0.6-1.5-1.2-2.1-2c-0.6-0.8-1.1-1.8-1.4-2.8c0,0,0-0.2-0.1-0.6C202.8,98.1,202.8,97.5,202.9,96.7z M159.1,45.8
	c-1.5-0.8-2.4-1.4-3.2-2c-0.7-0.5-1.2-0.9-1.5-1.2c-0.3-0.3-0.4-0.5-0.4-0.5c-1.1-2-1-4.3,0.1-6.4c0.5-1.1,1.4-2.1,2.3-2.9
	c0.5-0.4,1-0.8,1.6-1.1c0.6-0.3,1.1-0.6,1.8-0.9c2.5-1,5.2-1.2,7.5-0.4c2.3,0.8,4,2.3,4.7,4.4c0,0,0,0.2,0.1,0.6c0,0.4,0,1-0.2,1.9
	c-0.2,0.9-0.4,2.1-0.9,3.6c-0.3,0.7-0.6,1.6-0.8,2.6c-0.3,1-0.7,2-1.2,3.1c-0.4,1.1-0.9,2.1-1.3,3c-0.9-0.4-2-0.8-3-1.3
	C162.3,47.4,160.6,46.5,159.1,45.8z M164.3,108.4c0-0.9,0.1-1.9,0.2-3c0.1-0.9,0.2-1.7,0.3-2.6c0.8,0.3,1.5,0.6,2.4,1
	c1,0.5,1.9,0.9,2.7,1.3s1.5,0.9,2.1,1.2c1.3,0.8,2.1,1.4,2.8,2.1c0.7,0.5,1.1,1,1.3,1.3c0.3,0.3,0.4,0.5,0.4,0.5c1,1.9,1.3,4,1,5.9
	c-0.2,0.9-0.6,1.8-1,2.5c-0.5,0.7-1,1.2-1.7,1.7c-0.7,0.4-1.5,0.6-2.3,0.6c-0.9,0.1-1.8-0.1-2.7-0.4c-1.9-0.7-3.6-2-4.6-3.8
	c0,0-0.1-0.2-0.2-0.6c-0.1-0.4-0.3-1-0.5-1.8c-0.1-0.8-0.3-2.1-0.4-3.5c0-0.4,0-0.8,0-1.2C164.3,109.3,164.3,108.9,164.3,108.4z
	 M115.2,77.3c-1.3-0.2-2.3-0.4-3.3-0.5c-1-0.2-1.8-0.3-2.6-0.6c-1.6-0.2-2.8-0.6-3.6-0.9c-0.9-0.3-1.4-0.7-1.8-0.8
	c-0.4-0.2-0.4-0.3-0.5-0.4c-1.4-1.6-1.9-3.9-1.4-6.3c0.5-2.4,2-4.6,4.1-6.3c0.6-0.4,1.1-0.7,1.7-1.1c0.6-0.3,1.2-0.6,1.7-0.8
	c1.2-0.3,2.4-0.6,3.7-0.5c2.4,0.1,4.4,1.3,5.6,3c0,0,0.1,0.2,0.2,0.6c0.1,0.4,0.2,1,0.3,1.9c0.1,0.9,0.1,2.2,0.1,3.8
	c-0.1,1.7-0.2,3.6-0.5,6.1c-0.2,1.1-0.3,2.3-0.4,3.3C117.4,77.6,116.3,77.4,115.2,77.3z M119.3,435.4c-0.1,0.9-0.2,1.5-0.3,1.9
	c-0.1,0.4-0.2,0.6-0.2,0.6c-1.2,1.7-3.3,2.9-5.6,3c-1.2,0.1-2.5-0.1-3.7-0.5c-0.6-0.2-1.1-0.4-1.7-0.8c-0.6-0.3-1.1-0.6-1.7-1.1
	c-2.1-1.7-3.6-3.9-4.1-6.3c-0.5-2.4,0-4.6,1.4-6.3c0-0.1,0.1-0.2,0.5-0.4c0.3-0.2,0.9-0.5,1.8-0.8s2-0.7,3.6-0.9
	c0.8-0.2,1.6-0.4,2.6-0.6c1-0.1,2-0.3,3.3-0.5c1.1-0.2,2.3-0.3,3.3-0.4c0.1,1,0.3,2.1,0.4,3.3c0.3,2.5,0.5,4.4,0.5,6.1
	C119.4,433.3,119.4,434.5,119.3,435.4z M172,464.7c-0.1,0.4-0.1,0.6-0.1,0.6c-0.7,2-2.4,3.6-4.7,4.4c-2.3,0.9-5,0.6-7.5-0.4
	c-0.7-0.3-1.2-0.6-1.8-0.9c-0.5-0.3-1.1-0.7-1.6-1.1c-0.9-0.9-1.7-1.8-2.3-2.9c-1.1-2.1-1.2-4.4-0.1-6.4c0,0,0.1-0.2,0.4-0.5
	c0.3-0.3,0.8-0.7,1.5-1.2c0.8-0.6,1.7-1.2,3.2-2c1.5-0.8,3.2-1.6,5.5-2.6c1.1-0.4,2.1-0.9,3-1.3c0.4,0.9,0.8,2,1.3,3
	c0.5,1.1,0.9,2.1,1.2,3.1c0.3,1,0.6,1.8,0.8,2.6c0.5,1.6,0.7,2.7,0.9,3.6C172,463.7,172.1,464.2,172,464.7z M164.3,389.1
	c0.1-1.4,0.2-2.6,0.4-3.5c0.1-0.8,0.4-1.4,0.5-1.8c0.1-0.4,0.2-0.6,0.2-0.6c1-1.8,2.7-3.2,4.6-3.8c0.9-0.3,1.8-0.5,2.7-0.4
	c0.8,0,1.6,0.3,2.3,0.6c0.7,0.4,1.2,1,1.7,1.7c0.4,0.7,0.8,1.6,1,2.5c0.3,1.9,0,4-1,5.9c0,0-0.1,0.2-0.4,0.5
	c-0.2,0.3-0.7,0.8-1.3,1.3c-0.7,0.6-1.6,1.3-2.8,2.1c-0.6,0.4-1.3,0.8-2.1,1.2c-0.8,0.4-1.8,0.8-2.7,1.3c-0.8,0.4-1.6,0.7-2.4,1
	c-0.1-0.9-0.2-1.7-0.3-2.6c-0.2-1.1-0.2-2.1-0.2-3c-0.1-0.5-0.1-0.9-0.1-1.3C164.3,389.9,164.3,389.5,164.3,389.1z M210.7,411
	c-0.3,0.4-0.6,0.7-1,1c-0.3,0.4-0.8,0.7-1.2,1.1c-0.7,0.6-1.5,1.2-2.3,1.8c-0.3-0.9-0.7-1.8-1.1-2.7c-0.7-2.2-1.3-3.8-1.7-5.4
	c-0.1-0.8-0.2-1.4-0.4-2c-0.1-0.5-0.1-1-0.2-1.5c-0.1-0.9-0.1-1.4-0.1-1.9c0.1-0.4,0.1-0.6,0.1-0.6c0.2-1,0.8-2,1.4-2.8
	s1.3-1.5,2.1-2c0.8-0.6,1.7-0.9,2.5-1.1c0.4-0.1,0.8-0.1,1.2-0.1c0.4,0,0.9,0.1,1.3,0.2c0.8,0.1,1.6,0.6,2.2,1.2
	c0.7,0.6,1.2,1.3,1.6,2.2c0.4,0.9,0.7,1.9,0.8,2.9c0.1,1,0.1,2.1-0.2,3.1c0,0,0,0.2-0.2,0.6c-0.1,0.4-0.4,0.9-0.9,1.7
	c-0.5,0.7-1.3,1.6-2.2,2.7C212,409.8,211.4,410.4,210.7,411z M230.5,478.4c-0.2,2.2-1.4,4.1-3.5,5.4c-1.1,0.7-2.3,1.1-3.4,1.4
	c-0.6,0.2-1.2,0.2-1.9,0.3c-0.7,0-1.3-0.1-2-0.1c-1.3-0.2-2.6-0.6-3.7-1.1c-1.1-0.6-2.2-1.4-3-2.3c-1.6-1.8-2.3-4-1.9-6.1
	c0,0,0-0.2,0.3-0.7c0.2-0.3,0.5-1,1.2-1.6c0.6-0.8,1.4-1.7,2.6-2.8c1.2-1.1,2.7-2.4,4.7-3.9c0.9-0.6,1.8-1.3,2.6-2
	c0.6,0.8,1.3,1.8,2,2.6c1.5,2,2.7,3.6,3.5,5c0.3,0.3,0.5,0.6,0.6,0.9c0.2,0.3,0.4,0.6,0.5,0.9c0.4,0.6,0.6,1,0.8,1.5
	c0.3,0.9,0.5,1.5,0.7,1.9C230.5,478.2,230.5,478.4,230.5,478.4z M256.7,408.7c-0.1,0.4-0.3,1-0.6,1.8c-0.3,0.9-0.8,1.8-1.4,3.1
	c-0.3,0.6-0.7,1.3-1.2,2.1c-0.5,0.7-1,1.6-1.7,2.5c-0.3,0.4-0.6,0.8-0.9,1.2c-0.1,0.2-0.3,0.4-0.5,0.6c-0.1,0.2-0.2,0.3-0.4,0.5
	c-0.2-0.2-0.3-0.3-0.4-0.5c-0.1-0.2-0.3-0.4-0.5-0.6c-0.3-0.4-0.6-0.8-0.9-1.2c-0.7-0.8-1.2-1.7-1.7-2.5c-0.5-0.7-0.9-1.4-1.2-2.1
	c-0.6-1.3-1.1-2.3-1.4-3.1c-0.3-0.9-0.5-1.4-0.6-1.8c-0.1-0.4-0.1-0.6-0.1-0.6c0.2-2.1,0.9-4.1,2.2-5.6c0.2-0.1,0.3-0.4,0.5-0.5
	c0.1-0.3,0.3-0.4,0.5-0.5c0.4-0.2,0.7-0.5,1.1-0.7c0.4-0.2,0.8-0.4,1.2-0.5c0.4-0.1,0.8-0.2,1.2-0.2c0.4,0,0.8,0.1,1.2,0.2
	c0.4,0.1,0.8,0.2,1.2,0.5c0.4,0.2,0.7,0.5,1.1,0.7c0.2,0.1,0.4,0.2,0.5,0.5c0.2,0.1,0.3,0.4,0.5,0.5c1.3,1.5,2,3.5,2.2,5.6
	C256.8,408.1,256.8,408.3,256.7,408.7z M288.7,475.2c0.2,0.4,0.3,0.7,0.3,0.7c0.4,2.1-0.3,4.2-1.9,6.1c-0.8,0.9-1.8,1.6-3,2.3
	c-1.2,0.6-2.5,1-3.7,1.1c-0.7,0-1.3,0.1-2,0.1c-0.7,0-1.3-0.1-1.9-0.3c-1.2-0.2-2.4-0.7-3.4-1.4c-2.1-1.4-3.2-3.2-3.5-5.4
	c0,0,0-0.2,0.1-0.6c0.1-0.4,0.3-1,0.7-1.9c0.2-0.5,0.4-0.9,0.8-1.5c0.2-0.3,0.4-0.6,0.5-0.9c0.2-0.3,0.3-0.6,0.6-0.9
	c0.8-1.4,2-3,3.5-5c0.7-0.8,1.4-1.8,2-2.6c0.8,0.7,1.7,1.3,2.6,2c1.9,1.5,3.5,2.9,4.7,3.9c1.2,1.1,2,1.9,2.6,2.8
	C288.2,474.3,288.5,474.9,288.7,475.2z M297.1,403.3c-0.1,0.5-0.1,1-0.2,1.5c-0.1,0.5-0.2,1.2-0.4,2c-0.4,1.5-0.9,3.2-1.7,5.4
	c-0.4,0.9-0.8,1.8-1.1,2.7c-0.8-0.6-1.6-1.2-2.3-1.8c-0.4-0.3-0.8-0.7-1.2-1.1c-0.4-0.3-0.7-0.6-1-1c-0.7-0.6-1.3-1.2-1.7-1.8
	c-1-1.1-1.7-1.9-2.2-2.7c-0.5-0.7-0.8-1.3-0.9-1.7c-0.2-0.3-0.2-0.6-0.2-0.6c-0.2-1-0.3-2.1-0.2-3.1c0.1-1,0.4-2,0.8-2.9
	c0.4-0.9,0.9-1.6,1.6-2.2c0.6-0.6,1.4-1,2.2-1.2c0.4-0.1,0.8-0.1,1.3-0.2c0.4,0,0.8,0,1.2,0.1c0.8,0.2,1.7,0.5,2.5,1.1
	c0.8,0.6,1.5,1.2,2.1,2c0.6,0.8,1.1,1.8,1.4,2.8c0,0,0,0.2,0.1,0.6C297.2,401.9,297.2,402.5,297.1,403.3z M340.9,454.2
	c1.5,0.8,2.4,1.4,3.2,2c0.7,0.5,1.2,0.9,1.5,1.2c0.3,0.3,0.4,0.5,0.4,0.5c1.1,2,1,4.3-0.1,6.4c-0.5,1.1-1.4,2.1-2.3,2.9
	c-0.5,0.4-1,0.8-1.5,1.1c-0.6,0.3-1.1,0.6-1.8,0.9c-2.5,1-5.2,1.2-7.5,0.4c-2.3-0.8-4-2.3-4.7-4.4c0,0,0-0.2-0.1-0.6
	c0-0.4,0-1,0.2-1.9c0.2-0.9,0.4-2.1,0.9-3.6c0.3-0.7,0.6-1.6,0.8-2.6c0.3-1,0.7-2,1.2-3.1c0.4-1.1,0.9-2.1,1.3-3
	c0.9,0.4,2,0.8,3,1.3C337.7,452.6,339.4,453.5,340.9,454.2z M335.7,391.6c0,0.9-0.1,1.9-0.2,3c-0.1,0.9-0.2,1.7-0.3,2.6
	c-0.8-0.3-1.5-0.6-2.4-1c-1-0.5-1.9-0.9-2.7-1.3c-0.8-0.4-1.5-0.9-2.1-1.2c-1.3-0.8-2.1-1.4-2.8-2.1c-0.7-0.5-1.1-1-1.3-1.3
	c-0.3-0.3-0.4-0.5-0.4-0.5c-1-1.9-1.3-4-1-5.9c0.2-0.9,0.6-1.8,1-2.5c0.5-0.7,1-1.2,1.7-1.7c0.7-0.4,1.5-0.6,2.3-0.6
	c0.9-0.1,1.8,0.1,2.7,0.4c1.9,0.7,3.6,2,4.6,3.8c0,0,0.1,0.2,0.2,0.6c0.1,0.4,0.3,1,0.5,1.8s0.3,2.1,0.4,3.5c0,0.4,0,0.8,0,1.2
	C335.7,390.7,335.7,391.1,335.7,391.6z M384.8,422.7c1.3,0.2,2.3,0.4,3.3,0.5c1,0.2,1.8,0.3,2.6,0.6c1.6,0.2,2.8,0.6,3.6,0.9
	c0.9,0.3,1.4,0.7,1.8,0.8c0.4,0.2,0.4,0.3,0.5,0.4c1.4,1.6,1.9,3.9,1.4,6.3c-0.5,2.4-2,4.6-4.1,6.3c-0.6,0.4-1.1,0.7-1.7,1.1
	c-0.6,0.3-1.2,0.6-1.7,0.8c-1.2,0.3-2.4,0.6-3.7,0.5c-2.4-0.1-4.4-1.3-5.6-3c0,0-0.1-0.2-0.2-0.6c-0.1-0.4-0.2-1-0.3-1.9
	c-0.1-0.9-0.1-2.2-0.1-3.8c0.1-1.7,0.2-3.6,0.5-6.1c0.2-1.1,0.3-2.3,0.4-3.3C382.6,422.4,383.7,422.6,384.8,422.7z M442.2,277
	c-0.3,0.3-0.6,0.5-0.9,0.8c-0.3,0.3-0.6,0.5-1,0.8c-0.7,0.5-1.4,1-2.1,1.6c-0.7,0.5-1.5,1.1-2.2,1.6c-1.5,1.1-3,2.1-4.3,2.9
	c-1.4,0.9-2.8,1.8-4.1,2.6c-0.9-1.1-1.8-2.4-2.9-3.6c-1.3-1.5-2.5-2.8-3.8-4c-0.7-0.5-1.2-1.1-1.8-1.6c-0.6-0.5-1.3-1-1.8-1.4
	c-3.6-2.7-7.1-4-10.2-4.5c-3-0.5-6.1-0.3-9.1,0.1c-2.8,0.5-5.4,1.4-7.8,2.5c-0.6,0.3-1.1,0.6-1.6,0.9c-0.3,0.1-0.5,0.3-0.7,0.5
	c-0.3,0.1-0.5,0.3-0.7,0.5c-1,0.7-1.9,1.5-2.6,2.3c-0.8,0.8-1.5,1.8-2,2.8c-0.6,1-1,1.9-1.3,3c-0.3,1.1-0.5,2.1-0.4,3.3
	c-0.1,1.1,0.1,2.2,0.3,3.4c0.2,1.2,0.6,2.2,1.1,3.3c0.1,0.3,0.2,0.6,0.4,0.8c0.1,0.3,0.3,0.5,0.4,0.8c0.3,0.5,0.6,1.1,0.9,1.7
	c1.5,2.2,3.3,4.3,5.5,6.1c2.3,1.9,4.9,3.5,7.8,4.7c3,1.3,6.7,1.7,11.1,1.2c0.8-0.1,1.5-0.2,2.3-0.3c0.8-0.1,1.6-0.3,2.4-0.5
	c1.6-0.4,3.5-0.8,5.3-1.5c1.5-0.5,2.9-1.1,4.3-1.6c0,0,0.5,1,1.3,2.4c0.7,1.4,1.7,3.4,2.6,5.4c0.9,2,1.8,4,2.5,5.5
	c0.3,0.7,0.6,1.4,0.8,1.8c0.2,0.5,0.3,0.7,0.3,0.7s0.3,0.7,0.5,1.2c0.3,0.7,0.5,1.2,0.5,1.2c-0.7,0.3-1.4,0.6-2.2,0.9
	c-0.4,0.1-0.7,0.3-1.1,0.4c-0.4,0.1-0.7,0.3-1.2,0.5c-1.6,0.7-3.3,1.3-4.9,1.9c-1.7,0.6-3.3,1.2-5,1.7c-0.8,0.2-1.5,0.5-2.3,0.8
	c-0.8,0.2-1.5,0.5-2.2,0.7c-0.5-1.3-1.1-2.8-1.9-4.2c-0.9-1.7-1.8-3.4-2.7-4.8c-0.2-0.3-0.4-0.7-0.7-1.1c-0.2-0.3-0.5-0.6-0.7-1
	c-0.5-0.6-1-1.3-1.4-1.8c-1.4-1.7-2.9-3.2-4.3-4.3c-1.5-1.1-2.9-2-4.4-2.7c-1.4-0.6-2.8-1.1-4.3-1.5c-1.5-0.3-2.9-0.6-4.4-0.7
	c-1.4-0.1-2.8-0.1-4.2-0.1c-0.7,0-1.3,0.1-2,0.2c-0.7,0-1.3,0.2-2,0.3c-0.6,0.1-1.2,0.3-1.9,0.5c-0.3,0.1-0.6,0.2-0.9,0.3
	c-0.3,0.1-0.6,0.2-0.9,0.3c-1.1,0.4-2.2,0.9-3.1,1.6c-1,0.6-1.9,1.3-2.7,2.1L369,315c-0.1,0-0.2,0.2-0.3,0.3
	c-0.2,0.2-0.3,0.4-0.5,0.7c-0.3,0.4-0.6,0.9-1,1.4c-0.1,0.2-0.2,0.6-0.3,1c-0.1,0.4-0.3,0.7-0.4,0.9c-0.2,0.5-0.4,1.1-0.5,1.6
	l-0.1,0.4c0,0.1-0.1,0.3-0.1,0.4c-0.1,0.3-0.1,0.5-0.2,0.8c-0.1,0.5-0.2,1.1-0.2,1.7c0,0.6,0,1.2,0,1.8c0,0.6,0.1,1.2,0.2,1.7
	c0.1,0.6,0.3,1.2,0.4,1.9c0.1,0.6,0.3,1.2,0.5,1.9c0.4,1.3,1,2.5,1.6,3.7c0.6,1.3,1.3,2.5,2.2,3.6c1.8,2.5,3.8,4.6,6.3,6.5
	c2.6,2,6,3.4,10.5,4.2c1.5,0.2,3,0.5,4.8,0.5c0.9,0.1,1.8,0,2.7,0.1c0.4,0,0.9-0.1,1.4,0c0.4,0,0.9-0.1,1.4-0.1
	c1.6-0.1,3.2-0.3,4.6-0.4c0,0,0.1,0.6,0.3,1.3c0.2,0.7,0.3,1.3,0.3,1.3s0.2,1,0.6,2.7c0.3,1.6,0.7,3.8,1.1,5.9
	c0.3,2.1,0.7,4.4,0.9,6c0.1,0.8,0.2,1.5,0.2,2c0,0.4,0.1,0.8,0.1,0.8c-1.5,0.2-3.2,0.5-4.8,0.7c-1.7,0.2-3.5,0.4-5.4,0.5
	c-0.9,0.1-1.8,0.1-2.6,0.2c-0.9,0.1-1.8,0.1-2.5,0.2c-0.9,0.1-1.7,0.1-2.5,0.1c-0.8,0-1.6,0.1-2.3,0c-0.1-0.8-0.2-1.5-0.4-2.2
	c-0.1-0.8-0.3-1.6-0.4-2.3c-0.4-1.9-0.8-3.7-1.3-5.3c-0.5-1.7-1.1-3.2-1.7-4.5c-1.8-4.2-4-7-6.6-9.1c-1.2-0.9-2.5-1.8-3.8-2.6
	c-0.6-0.3-1.3-0.7-2-1.1c-0.6-0.3-1.4-0.6-2.1-0.9c-1.3-0.5-2.7-0.9-4-1.2c-0.7-0.2-1.3-0.3-2-0.3c-0.4,0-0.6-0.1-1-0.1
	c-0.4,0-0.6-0.1-1-0.1c-1.3-0.1-2.6,0-3.8,0.1c-0.5,0.1-1.2,0.1-1.8,0.3c-0.6,0.1-1.1,0.3-1.7,0.4c-1.1,0.4-2.2,0.8-3.2,1.4
	c-0.3,0.1-0.5,0.3-0.7,0.4l-0.3,0.2c-0.1,0-0.3,0.1-0.3,0.2c-0.4,0.3-0.9,0.7-1.2,1.1c-0.2,0.2-0.3,0.4-0.6,0.6
	c-0.1,0-0.2,0.2-0.3,0.3c-0.1,0-0.2,0.2-0.3,0.3c-0.3,0.4-0.7,0.8-1,1.4c-0.3,0.5-0.5,1-0.8,1.5c-0.3,0.5-0.4,1.1-0.6,1.6
	c-0.1,0.5-0.3,1.1-0.4,1.6c-0.1,0.5-0.2,1.2-0.3,1.8c-0.1,1.2-0.2,2.5-0.1,3.8c0.1,1.3,0.2,2.6,0.5,4c0.1,0.6,0.3,1.3,0.5,2
	c0.1,0.3,0.2,0.7,0.3,1c0.1,0.3,0.3,0.7,0.3,1c1,2.8,2.4,5.4,4.3,7.9c1,1.3,2.3,2.5,3.7,3.6c1.5,1.1,3.2,2.2,5.3,3.1
	c2.7,1.2,6,2.3,9.7,3.1c0.8,0.1,1.5,0.3,2.3,0.4c0.4,0,0.8,0.1,1.1,0.2c0.4,0,0.7,0,1.1,0.2c0,0,0,0.2,0,0.7c-0.1,0.5,0,1.2-0.2,1.9
	c0,0.8-0.1,1.8-0.2,2.7c-0.1,1-0.1,2.2-0.2,3.2c-0.2,2.2-0.5,4.4-0.7,6.1c-0.2,1.6-0.4,2.8-0.4,2.8s-0.1,0.6-0.1,1.4
	c-0.1,0.6-0.1,1.4-0.1,1.4c-0.7,0-1.5-0.2-2.3-0.3c-0.8-0.1-1.6-0.2-2.5-0.4c-0.9-0.1-1.8-0.3-2.6-0.3c-0.9-0.2-1.8-0.3-2.7-0.4
	c-0.9-0.2-1.8-0.3-2.6-0.5c-0.4-0.1-0.9-0.2-1.3-0.2c-0.4-0.1-0.8-0.2-1.3-0.3c-1.7-0.3-3.3-0.7-4.6-1c0.2-1.4,0.4-3,0.5-4.6
	c0.1-0.5,0-0.9,0.1-1.4c0.1-0.5,0-0.9,0-1.4c0-0.9,0-1.8,0-2.6c-0.1-1.7-0.2-3.4-0.4-4.7c-0.7-4.5-2.1-7.8-4.1-10.5
	c-1.9-2.5-4-4.6-6.5-6.3c-0.6-0.4-1.2-0.8-1.8-1.2c-0.6-0.4-1.2-0.7-1.9-1c-1.2-0.7-2.5-1.1-3.7-1.6c-0.6-0.2-1.2-0.3-1.8-0.6
	c-0.6-0.1-1.2-0.3-1.8-0.3c-0.6-0.1-1.2-0.1-1.8-0.1c-0.3-0.1-0.6,0-0.9-0.1c-0.3,0.1-0.6,0-0.9,0.1c-1.3,0-2.3,0.2-3.4,0.6
	c-1,0.3-1.9,0.6-2.7,1.1l0,0c-0.1,0-0.1,0.1-0.2,0.1c-0.1,0-0.1,0.1-0.2,0.1l0,0c-0.8,0.5-1.6,1.1-2.3,1.8c-1.3,1.3-2.1,2.2-2.6,3.3
	c-0.2,0.2-0.3,0.5-0.5,0.7c-0.2,0.2-0.3,0.5-0.4,0.8c-0.3,0.5-0.5,1.1-0.8,1.6c-0.2,0.6-0.4,1.1-0.6,1.7c-0.2,0.6-0.3,1.2-0.4,1.9
	c-0.3,1.3-0.5,2.6-0.5,4c0,0.7,0,1.4-0.1,2.1c0,0.7,0,1.4,0.1,2.2c0.3,2.9,1,5.9,2.2,8.8c1.3,3.1,3.5,5.9,7,8.8
	c1.1,1,2.4,1.8,3.9,2.7c0.7,0.5,1.4,0.9,2.3,1.3c0.4,0.2,0.8,0.4,1.2,0.7c0.5,0.2,0.8,0.4,1.3,0.6c1.4,0.7,2.9,1.4,4.2,1.9
	c0,0-0.2,0.7-0.4,1.3c-0.2,0.7-0.4,1.3-0.4,1.3s-0.3,1-0.8,2.6c-0.5,1.6-1.3,3.6-2,5.7c-0.3,1-0.8,2.1-1.2,3
	c-0.4,0.9-0.8,1.8-1.1,2.6c-0.4,0.8-0.6,1.4-0.8,1.8c-0.2,0.5-0.3,0.6-0.3,0.6c-1.4-0.6-3-1.2-4.6-1.9c-0.8-0.4-1.6-0.7-2.4-1
	c-0.8-0.4-1.6-0.7-2.5-1.1c-0.8-0.4-1.6-0.7-2.4-1.2c-0.8-0.4-1.6-0.8-2.3-1.2c-0.8-0.4-1.5-0.8-2.3-1.1c-0.3-0.2-0.7-0.4-1-0.6
	c-0.3-0.2-0.6-0.3-1-0.6c0.2-0.3,0.3-0.6,0.4-1.1c0.2-0.3,0.3-0.7,0.4-1.1c0.3-0.7,0.5-1.5,0.8-2.2c1.3-3.6,2-7,2.2-10
	c0.2-2.2,0.2-4.3,0-6.2c-0.2-1.8-0.7-3.6-1.3-5c-1.1-2.8-2.8-5.5-4.7-7.7c-0.3-0.3-0.4-0.6-0.7-0.8c-0.2-0.2-0.5-0.5-0.7-0.8
	c-0.5-0.5-1-0.9-1.5-1.4c-1-0.9-2-1.7-3.1-2.5c-1.1-0.7-2.2-1.4-3.3-1.8c-0.6-0.2-1.1-0.4-1.7-0.7c-0.5-0.1-1.1-0.4-1.6-0.4
	c-0.5-0.1-1.2-0.2-1.7-0.3c-0.6,0-1.1-0.2-1.7-0.1c-0.6,0-1.1,0.1-1.7,0.1c-0.1,0-0.3,0.1-0.4,0.1c-0.1,0-0.3,0.1-0.4,0.1
	c-0.3,0.1-0.5,0.1-0.8,0.2c-0.5,0.2-1.1,0.3-1.5,0.5c-0.1,0-0.3,0.1-0.3,0.2c-0.1,0-0.3,0.1-0.3,0.2c-0.3,0.1-0.4,0.2-0.7,0.4
	c-1,0.5-1.9,1.2-2.8,2c-0.5,0.4-0.8,0.8-1.2,1.3c-0.4,0.5-0.8,0.9-1.2,1.4c-0.7,1-1.4,2.1-2,3.2c-0.2,0.3-0.2,0.6-0.4,0.9
	c-0.2,0.3-0.2,0.6-0.4,0.9c-0.2,0.6-0.5,1.2-0.7,1.9c-0.4,1.3-0.8,2.7-1,4.1c-0.1,0.8-0.2,1.5-0.3,2.3c0,0.7-0.1,1.4-0.1,2.3
	c0,1.5,0,3,0.3,4.6c0.5,3.2,1.9,6.7,4.5,10.3c0.9,1.2,1.8,2.4,3,3.7c1.2,1.3,2.5,2.5,3.9,3.8c0.7,0.5,1.2,1.1,1.8,1.5
	c0.6,0.5,1.2,0.9,1.7,1.4c0,0-0.1,0.2-0.5,0.6c-0.2,0.4-0.6,0.9-1,1.6c-0.9,1.3-2.1,3.2-3.4,5c-1.3,1.8-2.6,3.6-3.5,4.9
	c-0.5,0.7-0.9,1.2-1.3,1.6c-0.2,0.4-0.5,0.6-0.5,0.6s-0.4,0.6-0.8,1c-0.4,0.5-0.8,1-0.8,1c-0.6-0.5-1.2-0.9-1.9-1.5
	c-0.7-0.5-1.3-1-2.1-1.6c-1.3-1.1-2.8-2.2-4.1-3.3c-0.7-0.5-1.4-1.2-2-1.7c-0.3-0.3-0.7-0.5-0.9-0.8c-0.3-0.3-0.7-0.5-0.9-0.8
	c-1.2-1.1-2.4-2.2-3.5-3.2c0.8-1.2,1.8-2.4,2.7-3.7c0.2-0.4,0.6-0.8,0.8-1.2c0.2-0.4,0.5-0.7,0.7-1.2c0.5-0.7,0.9-1.6,1.3-2.4
	c0.8-1.5,1.4-2.9,2-4.4c1.6-4.3,2.1-7.8,1.7-11.1c-0.4-3-1.2-6-2.4-8.7c-0.6-1.3-1.2-2.5-2-3.7c-0.8-1.2-1.5-2.2-2.4-3.2
	c-0.4-0.5-0.9-1-1.4-1.4c-0.5-0.4-0.9-0.8-1.4-1.3c-0.5-0.4-1-0.7-1.4-1c-0.5-0.3-1-0.6-1.5-0.9c-0.5-0.3-1.1-0.5-1.6-0.7
	c-0.3-0.1-0.5-0.1-0.8-0.2c-0.1,0-0.3-0.1-0.4-0.1l-0.4-0.1c-0.5-0.1-1.1-0.3-1.6-0.4c-0.3-0.1-0.5-0.1-0.9-0.1c-0.2,0-0.6,0-0.8,0
	h0c-0.2,0-0.6,0-0.8,0c-0.4,0-0.6,0-0.9,0.1c-0.5,0.1-1,0.2-1.6,0.4l-0.4,0.1c-0.1,0-0.3,0.1-0.4,0.1c-0.3,0.1-0.5,0.1-0.8,0.2
	c-0.5,0.2-1.1,0.4-1.6,0.7c-0.5,0.3-1,0.6-1.5,0.9c-0.4,0.3-0.9,0.6-1.4,1c-0.5,0.4-0.9,0.8-1.4,1.3c-0.5,0.4-1,0.9-1.4,1.4
	c-0.9,1-1.6,2.1-2.4,3.2c-0.8,1.2-1.4,2.4-2,3.7c-1.2,2.7-2.1,5.6-2.4,8.7c-0.4,3.3,0.1,6.9,1.7,11.1c0.5,1.5,1.2,2.9,2,4.4
	c0.4,0.8,0.8,1.6,1.3,2.4c0.2,0.5,0.4,0.8,0.7,1.2c0.2,0.4,0.6,0.8,0.8,1.2c0.9,1.3,1.9,2.6,2.7,3.7c-1,1-2.2,2.1-3.5,3.2
	c-0.3,0.3-0.7,0.5-0.9,0.8c-0.3,0.3-0.7,0.5-0.9,0.8c-0.7,0.5-1.4,1.2-2,1.7c-1.3,1.1-2.8,2.2-4.1,3.3c-0.8,0.6-1.4,1-2.1,1.6
	c-0.7,0.5-1.3,1-1.9,1.5c0,0-0.4-0.6-0.8-1c-0.4-0.5-0.8-1-0.8-1s-0.2-0.2-0.5-0.6c-0.3-0.4-0.7-1-1.3-1.6c-1-1.4-2.2-3.1-3.5-4.9
	c-1.3-1.8-2.5-3.6-3.4-5c-0.4-0.7-0.8-1.3-1-1.6c-0.3-0.4-0.5-0.6-0.5-0.6c0.5-0.5,1.1-1,1.7-1.4c0.6-0.5,1.1-1,1.8-1.5
	c1.4-1.3,2.7-2.5,3.9-3.8c1.2-1.3,2.1-2.5,3-3.7c2.7-3.7,4.1-7.1,4.5-10.3c0.3-1.6,0.4-3,0.3-4.6c0-0.8,0-1.5-0.1-2.3
	c-0.1-0.8-0.2-1.5-0.3-2.3c-0.2-1.4-0.6-2.8-1-4.1c-0.3-0.7-0.5-1.3-0.7-1.9c-0.2-0.3-0.2-0.6-0.4-0.9c-0.2-0.3-0.2-0.6-0.4-0.9
	c-0.6-1.2-1.3-2.2-2-3.2c-0.4-0.5-0.8-0.9-1.2-1.4c-0.4-0.5-0.8-0.9-1.2-1.3c-0.9-0.9-1.8-1.5-2.8-2c-0.3-0.1-0.4-0.2-0.7-0.4
	c-0.1-0.1-0.3-0.1-0.3-0.2c-0.1,0-0.3-0.1-0.3-0.2c-0.4-0.2-1.1-0.4-1.5-0.5c-0.3-0.1-0.5-0.2-0.8-0.2c-0.1,0-0.3-0.1-0.4-0.1
	c-0.1,0-0.3-0.1-0.4-0.1c-0.5-0.1-1.1-0.2-1.7-0.1c-0.5-0.1-1.1,0.1-1.7,0.1c-0.5,0.1-1.1,0.2-1.7,0.3c-0.5,0.1-1.1,0.3-1.6,0.4
	c-0.6,0.2-1.1,0.4-1.7,0.7c-1.1,0.4-2.2,1-3.3,1.8c-1.1,0.7-2.2,1.5-3.1,2.5c-0.5,0.5-1,0.9-1.5,1.4c-0.1,0.3-0.4,0.6-0.7,0.8
	c-0.2,0.2-0.4,0.5-0.7,0.8c-1.9,2.3-3.5,4.9-4.7,7.7c-0.6,1.5-1,3.2-1.3,5c-0.2,1.9-0.2,3.9,0,6.2c0.3,2.9,1,6.3,2.2,10
	c0.3,0.7,0.5,1.5,0.8,2.2c0.2,0.3,0.3,0.7,0.4,1.1c0.1,0.4,0.3,0.7,0.4,1.1c-0.4,0.2-0.7,0.4-1,0.6c-0.3,0.2-0.7,0.4-1,0.6
	c-0.8,0.4-1.5,0.8-2.3,1.1c-0.7,0.4-1.5,0.9-2.3,1.2c-0.8,0.4-1.6,0.8-2.4,1.2c-0.9,0.4-1.7,0.8-2.5,1.1c-0.9,0.3-1.7,0.7-2.4,1
	c-1.6,0.7-3.2,1.3-4.6,1.9c0,0-0.1-0.2-0.3-0.6c-0.2-0.5-0.4-1.1-0.8-1.8c-0.3-0.7-0.7-1.7-1.1-2.6c-0.4-0.9-0.8-2-1.2-3
	c-0.8-2.1-1.6-4.1-2-5.7c-0.5-1.6-0.8-2.6-0.8-2.6s-0.2-0.6-0.4-1.3c-0.2-0.6-0.4-1.3-0.4-1.3c1.3-0.5,2.8-1.2,4.2-1.9
	c0.5-0.2,0.8-0.4,1.3-0.6c0.4-0.2,0.8-0.4,1.2-0.7c0.8-0.4,1.5-0.9,2.3-1.3c1.4-0.9,2.7-1.8,3.9-2.7c3.5-2.9,5.7-5.7,7-8.8
	c1.2-2.9,1.9-5.9,2.2-8.8c0.1-0.8,0-1.5,0.1-2.2c0-0.7,0-1.4-0.1-2.1c0-1.4-0.2-2.7-0.5-4c-0.1-0.6-0.2-1.3-0.4-1.9
	s-0.4-1.1-0.6-1.7c-0.3-0.5-0.5-1.1-0.8-1.6c-0.1-0.3-0.1-0.5-0.4-0.8c-0.2-0.2-0.3-0.5-0.5-0.7c-0.6-1-1.3-1.9-2.6-3.3
	c-0.7-0.7-1.5-1.3-2.3-1.8l0,0c-0.1,0-0.1-0.1-0.2-0.1c-0.1,0-0.1-0.1-0.2-0.1l0,0c-0.9-0.5-1.7-0.9-2.7-1.1
	c-1.1-0.4-2.1-0.5-3.4-0.6c-0.3-0.1-0.6,0-0.9-0.1c-0.3,0.1-0.6,0-0.9,0.1c-0.6,0-1.2,0-1.8,0.1c-0.6,0-1.2,0.2-1.8,0.3
	c-0.6,0.2-1.2,0.3-1.8,0.6c-1.2,0.5-2.5,0.9-3.7,1.6c-0.6,0.3-1.3,0.6-1.9,1c-0.6,0.3-1.3,0.8-1.8,1.2c-2.5,1.7-4.6,3.8-6.5,6.3
	c-2,2.7-3.4,6-4.1,10.5c-0.2,1.4-0.4,3-0.4,4.7c0,0.8-0.1,1.7,0,2.6c0,0.4-0.1,0.9,0,1.4c0.1,0.5,0,0.9,0.1,1.4
	c0.1,1.6,0.3,3.2,0.5,4.6c-1.4,0.4-3,0.7-4.6,1c-0.5,0.1-0.9,0.2-1.3,0.3c-0.4,0-0.9,0.1-1.3,0.2c-0.8,0.2-1.7,0.3-2.6,0.5
	c-0.9,0.2-1.8,0.3-2.7,0.4c-0.9,0.1-1.8,0.3-2.6,0.3c-0.9,0.2-1.8,0.3-2.5,0.4c-0.9,0.1-1.6,0.2-2.3,0.3c0,0,0-0.7-0.1-1.4
	c0-0.7-0.1-1.4-0.1-1.4s-0.2-1.1-0.4-2.8c-0.2-1.6-0.5-3.8-0.7-6.1c-0.1-1.1-0.1-2.3-0.2-3.2c0-0.9-0.2-1.9-0.2-2.7
	c-0.1-0.8-0.1-1.4-0.2-1.9c-0.1-0.5,0-0.7,0-0.7c0.4-0.1,0.8-0.1,1.1-0.2c0.4,0,0.8-0.1,1.1-0.2c0.8-0.1,1.5-0.3,2.3-0.4
	c3.8-0.7,7.1-1.8,9.7-3.1c2.1-0.9,3.9-1.9,5.3-3.1c1.5-1.1,2.7-2.4,3.7-3.6c1.9-2.5,3.3-5.2,4.3-7.9c0.1-0.3,0.3-0.7,0.3-1
	c0.1-0.3,0.3-0.7,0.3-1c0.2-0.7,0.4-1.4,0.5-2c0.3-1.3,0.5-2.6,0.5-4c0-1.3,0-2.6-0.1-3.8c0-0.6-0.1-1.2-0.3-1.8
	c-0.1-0.5-0.3-1.1-0.4-1.6c-0.1-0.5-0.3-1.1-0.6-1.6c-0.3-0.5-0.5-1-0.8-1.5c-0.3-0.5-0.6-0.9-1-1.4c-0.1,0-0.2-0.2-0.3-0.3
	c-0.1,0-0.2-0.2-0.3-0.3c-0.3-0.1-0.4-0.3-0.6-0.6c-0.4-0.3-0.9-0.7-1.2-1.1c-0.1,0-0.3-0.1-0.3-0.2l-0.3-0.2
	c-0.2-0.1-0.4-0.2-0.7-0.4c-1-0.5-2.1-1-3.2-1.4c-0.6-0.1-1.1-0.3-1.7-0.4c-0.6-0.2-1.2-0.3-1.8-0.3c-1.2-0.1-2.5-0.1-3.8-0.1
	c-0.4,0-0.6,0.1-1,0.1c-0.4,0-0.6,0.1-1,0.1c-0.7,0-1.4,0.1-2,0.3c-1.3,0.3-2.7,0.7-4,1.2c-0.7,0.3-1.5,0.5-2.1,0.9
	c-0.6,0.3-1.3,0.7-2,1.1c-1.3,0.8-2.6,1.6-3.8,2.6c-2.6,2.1-4.8,5-6.6,9.1c-0.5,1.3-1.1,2.8-1.7,4.5c-0.5,1.6-0.9,3.4-1.3,5.3
	c-0.1,0.8-0.3,1.6-0.4,2.3c-0.2,0.7-0.3,1.5-0.4,2.2c-0.7,0-1.5,0-2.3,0c-0.8,0-1.6-0.1-2.5-0.1c-0.8-0.1-1.7-0.1-2.5-0.2
	c-0.8-0.1-1.7-0.2-2.6-0.2c-1.9-0.2-3.6-0.3-5.4-0.5c-1.6-0.2-3.3-0.5-4.8-0.7c0,0,0.1-0.3,0.1-0.8c0-0.4,0.1-1.1,0.2-2
	c0.2-1.6,0.6-3.8,0.9-6c0.4-2.1,0.7-4.3,1.1-5.9c0.4-1.6,0.6-2.7,0.6-2.7s0.1-0.6,0.3-1.3c0.2-0.7,0.3-1.3,0.3-1.3
	c1.4,0.1,3,0.4,4.6,0.4c0.5,0.1,1,0.1,1.4,0.1c0.5-0.1,0.9,0,1.4,0c0.9,0,1.8,0,2.7-0.1c1.8,0,3.3-0.3,4.8-0.5
	c4.5-0.8,7.8-2.2,10.5-4.2c2.4-1.8,4.5-4,6.3-6.5c0.9-1.1,1.6-2.3,2.2-3.6c0.6-1.3,1.2-2.4,1.6-3.7c0.2-0.7,0.4-1.3,0.5-1.9
	c0.1-0.6,0.3-1.2,0.4-1.9c0.1-0.5,0.2-1.2,0.2-1.7c0-0.6,0-1.2,0-1.8c0-0.6,0-1.2-0.2-1.7c-0.1-0.3-0.1-0.5-0.2-0.8
	c0-0.1-0.1-0.3-0.1-0.4l-0.1-0.4c-0.1-0.5-0.3-1.1-0.5-1.6c-0.1-0.3-0.3-0.5-0.4-0.9c-0.1-0.3-0.2-0.8-0.3-1c-0.3-0.4-0.6-0.9-1-1.4
	c-0.2-0.2-0.3-0.4-0.5-0.7c-0.1,0-0.2-0.2-0.3-0.3l-0.3-0.3c-0.8-0.8-1.7-1.5-2.7-2.1c-0.9-0.6-2-1.1-3.1-1.6
	c-0.3-0.1-0.6-0.2-0.9-0.3c-0.3-0.1-0.6-0.2-0.9-0.3c-0.7-0.3-1.3-0.4-1.9-0.5c-0.7-0.2-1.3-0.3-2-0.3c-0.6-0.1-1.3-0.2-2-0.2
	c-1.4,0-2.8,0-4.2,0.1c-1.5,0-3,0.4-4.4,0.7c-1.5,0.3-2.9,0.9-4.3,1.5c-1.5,0.6-3,1.5-4.4,2.7c-1.5,1.1-2.9,2.6-4.3,4.3
	c-0.4,0.6-0.9,1.2-1.4,1.8c-0.2,0.3-0.5,0.6-0.7,1c-0.3,0.4-0.5,0.7-0.7,1.1c-0.8,1.5-1.8,3.1-2.7,4.8c-0.7,1.4-1.3,2.9-1.9,4.2
	c-0.7-0.2-1.4-0.4-2.2-0.7c-0.8-0.2-1.5-0.5-2.3-0.8c-1.7-0.5-3.3-1.1-5-1.7c-1.6-0.6-3.3-1.2-4.9-1.9c-0.5-0.2-0.8-0.4-1.2-0.5
	c-0.4-0.1-0.7-0.3-1.1-0.4c-0.8-0.4-1.5-0.6-2.2-0.9c0,0,0.2-0.6,0.5-1.2c0.2-0.6,0.5-1.2,0.5-1.2s0.1-0.3,0.3-0.7
	c0.2-0.4,0.5-1.1,0.8-1.8c0.6-1.5,1.5-3.5,2.5-5.5c0.9-2,1.9-4,2.6-5.4c0.7-1.4,1.3-2.4,1.3-2.4c1.3,0.5,2.7,1.1,4.3,1.6
	c1.8,0.7,3.6,1.2,5.3,1.5c0.8,0.1,1.6,0.4,2.4,0.5c0.8,0.1,1.5,0.2,2.3,0.3c4.5,0.5,8.1,0,11.1-1.2c2.8-1.1,5.5-2.7,7.8-4.7
	c2.2-1.8,4-3.9,5.5-6.1c0.3-0.5,0.6-1.1,0.9-1.7c0.1-0.3,0.2-0.6,0.4-0.8c0.1-0.3,0.2-0.6,0.4-0.8c0.5-1.1,0.9-2.1,1.1-3.3
	c0.2-1.2,0.4-2.3,0.3-3.4c0.1-1.1-0.1-2.2-0.4-3.3c-0.3-1.1-0.7-2-1.3-3c-0.5-1-1.2-2-2-2.8c-0.7-0.8-1.6-1.6-2.6-2.3
	c-0.2-0.2-0.5-0.4-0.7-0.5c-0.2-0.2-0.5-0.4-0.7-0.5c-0.5-0.3-1-0.6-1.6-0.9c-2.4-1.1-5-2-7.8-2.5c-3-0.4-6-0.6-9.1-0.1
	c-3.2,0.5-6.6,1.9-10.2,4.5c-0.6,0.4-1.2,0.9-1.8,1.4c-0.6,0.5-1.2,1.1-1.8,1.6c-1.2,1.1-2.5,2.5-3.8,4c-1,1.2-2,2.4-2.9,3.6
	c-1.3-0.7-2.6-1.6-4.1-2.6c-1.3-0.9-2.9-1.9-4.3-2.9c-0.7-0.5-1.5-1.1-2.2-1.6c-0.7-0.5-1.4-1-2.1-1.6c-0.4-0.3-0.7-0.5-1-0.8
	c-0.3-0.3-0.6-0.5-0.9-0.8c-0.6-0.5-1.3-1-1.8-1.4c0,0,0.6-0.9,1.6-2.2c0.5-0.6,1.2-1.4,1.7-2.2c0.7-0.8,1.3-1.7,2-2.5
	c0.6-0.9,1.4-1.8,2-2.5c0.7-0.8,1.2-1.5,1.8-2.1c0.6-0.6,1-1.1,1.3-1.5c0.3-0.3,0.5-0.5,0.5-0.5s0.5-0.4,0.9-1c0.4-0.5,0.9-1,0.9-1
	c1.2,0.9,2.4,1.8,3.7,2.7c1.7,1.1,3.2,2.1,4.7,2.8c0.5,0.2,0.8,0.4,1.2,0.6c0.3,0.2,0.7,0.3,1.1,0.5c0.7,0.3,1.5,0.6,2.1,0.9
	c2.1,0.8,4.1,1.3,5.9,1.6c1.8,0.2,3.5,0.3,5.2,0.1c1.5-0.2,3-0.5,4.4-0.9c1.4-0.5,2.8-1.1,4.2-1.6c1.4-0.6,2.6-1.3,3.7-2
	c0.6-0.4,1-0.8,1.6-1.2c0.6-0.5,1.1-0.9,1.6-1.3c0.5-0.5,1-0.9,1.4-1.4c0.2-0.2,0.4-0.5,0.6-0.7c0.2-0.2,0.5-0.4,0.6-0.7
	c0.8-0.9,1.5-1.9,1.9-2.9c0.6-1,1-2.1,1.3-3.2l0.1-0.4c0-0.1,0.1-0.3,0.1-0.4c0.1-0.3,0.1-0.5,0.1-0.8c0.1-0.5,0.1-1,0.1-1.6h0
	c0,0,0,0,0,0c0,0,0,0,0,0h0c0-0.5-0.1-1.1-0.1-1.6c-0.1-0.3-0.1-0.5-0.1-0.8c0-0.1-0.1-0.3-0.1-0.4l-0.1-0.4
	c-0.3-1.1-0.7-2.2-1.3-3.2c-0.5-1-1.1-2-1.9-2.9c-0.1-0.3-0.4-0.5-0.6-0.7c-0.2-0.2-0.4-0.5-0.6-0.7c-0.4-0.5-0.9-0.9-1.4-1.4
	c-0.5-0.4-0.9-0.8-1.6-1.3c-0.6-0.4-1-0.8-1.6-1.2c-1.1-0.7-2.3-1.4-3.7-2c-1.4-0.6-2.8-1.2-4.2-1.6c-1.4-0.5-3-0.7-4.4-0.9
	c-1.6-0.2-3.3-0.2-5.2,0.1c-1.8,0.2-3.8,0.8-5.9,1.6c-0.7,0.3-1.4,0.6-2.1,0.9c-0.3,0.2-0.7,0.3-1.1,0.5c-0.3,0.2-0.7,0.4-1.2,0.6
	c-1.5,0.8-3,1.7-4.7,2.8c-1.3,0.9-2.5,1.8-3.7,2.7c0,0-0.5-0.5-0.9-1c-0.4-0.6-0.9-1-0.9-1s-0.2-0.2-0.5-0.5
	c-0.3-0.4-0.7-0.9-1.3-1.5c-0.6-0.6-1.1-1.3-1.8-2.1c-0.7-0.8-1.4-1.6-2-2.5c-0.7-0.9-1.4-1.8-2-2.5c-0.6-0.8-1.3-1.6-1.7-2.2
	c-1-1.3-1.6-2.2-1.6-2.2c0.6-0.4,1.2-0.9,1.8-1.4c0.3-0.3,0.6-0.5,0.9-0.8c0.3-0.3,0.6-0.5,1-0.8c0.7-0.5,1.4-1,2.1-1.6
	c0.7-0.5,1.5-1.1,2.2-1.6c1.5-1.1,3-2.1,4.3-2.9c1.4-0.9,2.8-1.8,4.1-2.6c0.9,1.1,1.8,2.4,2.9,3.6c1.3,1.5,2.5,2.8,3.8,4
	c0.7,0.5,1.2,1.1,1.8,1.6c0.6,0.5,1.3,1,1.8,1.4c3.6,2.7,7.1,4,10.2,4.5c3,0.5,6.1,0.3,9.1-0.1c2.8-0.5,5.4-1.4,7.8-2.5
	c0.6-0.3,1.1-0.6,1.6-0.9c0.3-0.1,0.5-0.3,0.7-0.5c0.3-0.1,0.5-0.3,0.7-0.5c1-0.7,1.9-1.5,2.6-2.3c0.8-0.8,1.5-1.8,2-2.8
	c0.6-1,1-1.9,1.3-3c0.3-1.1,0.5-2.1,0.4-3.3c0.1-1.1-0.1-2.2-0.3-3.4c-0.2-1.2-0.6-2.2-1.1-3.3c-0.1-0.3-0.2-0.6-0.4-0.8
	c-0.1-0.3-0.3-0.5-0.4-0.8c-0.3-0.5-0.6-1.1-0.9-1.7c-1.5-2.2-3.3-4.3-5.5-6.1c-2.3-1.9-4.9-3.5-7.8-4.7c-3-1.3-6.7-1.7-11.1-1.2
	c-0.8,0.1-1.5,0.2-2.3,0.3c-0.8,0.1-1.6,0.3-2.4,0.5c-1.6,0.4-3.5,0.8-5.3,1.5c-1.5,0.5-2.9,1.1-4.3,1.6c0,0-0.5-1-1.3-2.4
	c-0.7-1.4-1.7-3.4-2.6-5.4c-0.9-2-1.8-4-2.5-5.5c-0.3-0.7-0.6-1.4-0.8-1.8c-0.2-0.5-0.3-0.7-0.3-0.7s-0.3-0.7-0.5-1.2
	c-0.3-0.7-0.5-1.2-0.5-1.2c0.7-0.3,1.4-0.6,2.2-0.9c0.4-0.1,0.7-0.3,1.1-0.4c0.4-0.1,0.7-0.3,1.2-0.5c1.6-0.7,3.3-1.3,4.9-1.9
	c1.7-0.6,3.3-1.2,5-1.7c0.8-0.2,1.5-0.5,2.3-0.8c0.8-0.2,1.5-0.5,2.2-0.7c0.5,1.3,1.1,2.8,1.9,4.2c0.9,1.7,1.8,3.4,2.7,4.8
	c0.2,0.3,0.4,0.7,0.7,1.1c0.2,0.3,0.5,0.6,0.7,1c0.5,0.6,1,1.3,1.4,1.8c1.4,1.7,2.9,3.2,4.3,4.3c1.5,1.1,2.9,2,4.4,2.7
	c1.4,0.6,2.8,1.1,4.3,1.5c1.5,0.3,2.9,0.6,4.4,0.7c1.4,0.1,2.8,0.1,4.2,0.1c0.7,0,1.3-0.1,2-0.2c0.7,0,1.3-0.2,2-0.3
	c0.6-0.1,1.2-0.3,1.9-0.5c0.3-0.1,0.6-0.2,0.9-0.3c0.3-0.1,0.6-0.2,0.9-0.3c1.1-0.4,2.2-0.9,3.1-1.6c1-0.6,1.9-1.3,2.7-2.1l0.3-0.3
	c0.1,0,0.2-0.2,0.3-0.3c0.2-0.2,0.3-0.4,0.5-0.7c0.3-0.4,0.6-0.9,1-1.4c0.1-0.2,0.2-0.6,0.3-1c0.1-0.4,0.3-0.7,0.4-0.9
	c0.2-0.5,0.4-1.1,0.5-1.6l0.1-0.4c0-0.1,0.1-0.3,0.1-0.4c0.1-0.3,0.1-0.5,0.2-0.8c0.1-0.5,0.2-1.1,0.2-1.7c0-0.6,0-1.2,0-1.8
	c0-0.6-0.1-1.2-0.2-1.7c-0.1-0.6-0.3-1.2-0.4-1.9c-0.1-0.6-0.3-1.2-0.5-1.9c-0.4-1.3-1-2.5-1.6-3.7c-0.6-1.3-1.3-2.5-2.2-3.6
	c-1.8-2.5-3.8-4.6-6.3-6.5c-2.6-2-6-3.4-10.5-4.2c-1.5-0.2-3-0.5-4.8-0.5c-0.9-0.1-1.8,0-2.7-0.1c-0.4,0-0.9,0.1-1.4,0
	c-0.4,0-0.9,0.1-1.4,0.1c-1.6,0.1-3.2,0.3-4.6,0.4c0,0-0.1-0.6-0.3-1.3c-0.2-0.7-0.3-1.3-0.3-1.3s-0.2-1-0.6-2.7
	c-0.3-1.6-0.7-3.8-1.1-5.9c-0.3-2.1-0.7-4.4-0.9-6c-0.1-0.8-0.2-1.5-0.2-2c0-0.4-0.1-0.8-0.1-0.8c1.5-0.2,3.2-0.5,4.8-0.7
	c1.7-0.2,3.5-0.4,5.4-0.5c0.9-0.1,1.8-0.1,2.6-0.2c0.9-0.1,1.8-0.1,2.5-0.2c0.9-0.1,1.7-0.1,2.5-0.1c0.8,0,1.6-0.1,2.3,0
	c0.1,0.8,0.2,1.5,0.4,2.2c0.1,0.8,0.3,1.6,0.4,2.3c0.4,1.9,0.8,3.7,1.3,5.3c0.5,1.7,1.1,3.2,1.7,4.5c1.8,4.2,4,7,6.6,9.1
	c1.2,0.9,2.5,1.8,3.8,2.6c0.6,0.3,1.3,0.7,2,1.1c0.6,0.3,1.4,0.6,2.1,0.9c1.3,0.5,2.7,0.9,4,1.2c0.7,0.2,1.3,0.3,2,0.3
	c0.4,0,0.6,0.1,1,0.1c0.4,0,0.6,0.1,1,0.1c1.3,0.1,2.6,0,3.8-0.1c0.5-0.1,1.2-0.1,1.8-0.3c0.6-0.1,1.1-0.3,1.7-0.4
	c1.1-0.4,2.2-0.8,3.2-1.4c0.3-0.1,0.5-0.3,0.7-0.4l0.3-0.2c0.1,0,0.3-0.1,0.3-0.2c0.4-0.3,0.9-0.7,1.2-1.1c0.2-0.2,0.3-0.4,0.6-0.6
	c0.1,0,0.2-0.2,0.3-0.3c0.1-0.1,0.2-0.2,0.3-0.3c0.3-0.4,0.7-0.8,1-1.4c0.3-0.5,0.5-1,0.8-1.5c0.3-0.5,0.4-1.1,0.6-1.6
	c0.1-0.5,0.3-1.1,0.4-1.6c0.1-0.5,0.2-1.2,0.3-1.8c0.1-1.2,0.2-2.5,0.1-3.8c-0.1-1.3-0.2-2.6-0.5-4c-0.1-0.6-0.3-1.3-0.5-2
	c-0.1-0.3-0.2-0.7-0.3-1c-0.1-0.3-0.3-0.7-0.3-1c-1-2.8-2.4-5.4-4.3-7.9c-1-1.3-2.3-2.5-3.7-3.6c-1.5-1.1-3.2-2.2-5.3-3.1
	c-2.7-1.2-6-2.3-9.7-3.1c-0.8-0.1-1.5-0.3-2.3-0.4c-0.4,0-0.8-0.1-1.1-0.2c-0.4,0-0.7,0-1.1-0.2c0,0,0-0.2,0-0.7
	c0.1-0.5,0-1.2,0.2-1.9c0-0.8,0.1-1.8,0.2-2.7c0.1-1,0.1-2.2,0.2-3.2c0.2-2.2,0.5-4.4,0.7-6.1c0.2-1.6,0.4-2.8,0.4-2.8
	s0.1-0.6,0.1-1.4c0.1-0.6,0.1-1.4,0.1-1.4c0.7,0,1.5,0.2,2.3,0.3c0.8,0.1,1.6,0.2,2.5,0.4c0.9,0.1,1.8,0.3,2.6,0.3
	c0.9,0.2,1.8,0.3,2.7,0.4c0.9,0.2,1.8,0.3,2.6,0.5c0.4,0.1,0.9,0.2,1.3,0.2c0.4,0.1,0.8,0.2,1.3,0.3c1.7,0.3,3.3,0.7,4.6,1
	c-0.2,1.4-0.4,3-0.5,4.6c-0.1,0.5,0,0.9-0.1,1.4c-0.1,0.5,0,0.9,0,1.4c0,0.9,0,1.8,0,2.6c0.1,1.7,0.2,3.4,0.4,4.7
	c0.7,4.5,2.1,7.8,4.1,10.5c1.9,2.5,4,4.6,6.5,6.3c0.6,0.4,1.2,0.8,1.8,1.2c0.6,0.4,1.2,0.7,1.9,1c1.2,0.7,2.5,1.1,3.7,1.6
	c0.6,0.2,1.2,0.3,1.8,0.6c0.6,0.1,1.2,0.3,1.8,0.3c0.6,0.1,1.2,0.1,1.8,0.1c0.3,0.1,0.6,0,0.9,0.1c0.3-0.1,0.6,0,0.9-0.1
	c1.3,0,2.3-0.2,3.4-0.6c1-0.3,1.9-0.6,2.7-1.1l0,0c0.1,0,0.1-0.1,0.2-0.1c0.1,0,0.1-0.1,0.2-0.1l0,0c0.8-0.5,1.6-1.1,2.3-1.8
	c1.3-1.3,2.1-2.2,2.6-3.3c0.2-0.2,0.3-0.5,0.5-0.7c0.2-0.2,0.3-0.5,0.4-0.8c0.3-0.5,0.5-1.1,0.8-1.6c0.2-0.6,0.4-1.1,0.6-1.7
	c0.2-0.6,0.3-1.2,0.4-1.9c0.3-1.3,0.5-2.6,0.5-4c0-0.7,0-1.4,0.1-2.1c0-0.7,0-1.4-0.1-2.2c-0.3-2.9-1-5.9-2.2-8.8
	c-1.3-3.1-3.5-5.9-7-8.8c-1.1-1-2.4-1.8-3.9-2.7c-0.7-0.5-1.4-0.9-2.3-1.3c-0.4-0.2-0.8-0.4-1.2-0.7c-0.5-0.2-0.8-0.4-1.3-0.6
	c-1.4-0.7-2.9-1.4-4.2-1.9c0,0,0.2-0.7,0.4-1.3c0.2-0.7,0.4-1.3,0.4-1.3s0.3-1,0.8-2.6c0.5-1.6,1.3-3.6,2-5.7c0.3-1,0.8-2.1,1.2-3
	c0.4-0.9,0.8-1.8,1.1-2.6c0.4-0.8,0.6-1.4,0.8-1.8c0.2-0.5,0.3-0.6,0.3-0.6c1.4,0.6,3,1.2,4.6,1.9c0.8,0.4,1.6,0.7,2.4,1
	c0.8,0.4,1.6,0.7,2.5,1.1c0.8,0.4,1.6,0.7,2.4,1.2c0.8,0.4,1.6,0.8,2.3,1.2c0.8,0.4,1.5,0.8,2.3,1.1c0.3,0.2,0.7,0.4,1,0.6
	c0.3,0.2,0.6,0.3,1,0.6c-0.2,0.3-0.3,0.6-0.4,1.1c-0.2,0.3-0.3,0.7-0.4,1.1c-0.3,0.7-0.5,1.5-0.8,2.2c-1.3,3.6-2,7-2.2,10
	c-0.2,2.2-0.2,4.3,0,6.2c0.2,1.8,0.7,3.6,1.3,5c1.1,2.8,2.8,5.5,4.7,7.7c0.3,0.3,0.4,0.6,0.7,0.8c0.2,0.2,0.5,0.5,0.7,0.8
	c0.5,0.5,1,0.9,1.5,1.4c1,0.9,2,1.7,3.1,2.5c1.1,0.7,2.2,1.4,3.3,1.8c0.6,0.2,1.1,0.4,1.7,0.7c0.5,0.1,1.1,0.4,1.6,0.4
	c0.5,0.1,1.2,0.2,1.7,0.3c0.6,0,1.1,0.2,1.7,0.1c0.6,0,1.1-0.1,1.7-0.1c0.1,0,0.3-0.1,0.4-0.1c0.1,0,0.3-0.1,0.4-0.1
	c0.3-0.1,0.5-0.1,0.8-0.2c0.5-0.2,1.1-0.3,1.5-0.5c0.1,0,0.3-0.1,0.3-0.2c0.1,0,0.3-0.1,0.3-0.2c0.3-0.1,0.4-0.2,0.7-0.4
	c1-0.5,1.9-1.2,2.8-2c0.5-0.4,0.8-0.8,1.2-1.3c0.4-0.5,0.8-0.9,1.2-1.4c0.7-1,1.4-2.1,2-3.2c0.2-0.3,0.2-0.6,0.4-0.9
	c0.2-0.3,0.2-0.6,0.4-0.9c0.2-0.6,0.5-1.2,0.7-1.9c0.4-1.3,0.8-2.7,1-4.1c0.1-0.8,0.2-1.5,0.3-2.3c0-0.7,0.1-1.4,0.1-2.3
	c0-1.5,0-3-0.3-4.6c-0.5-3.2-1.9-6.7-4.5-10.3c-0.9-1.2-1.8-2.4-3-3.7c-1.2-1.3-2.5-2.5-3.9-3.8c-0.7-0.5-1.2-1.1-1.8-1.5
	c-0.6-0.5-1.2-0.9-1.7-1.4c0,0,0.1-0.2,0.5-0.6c0.2-0.4,0.6-0.9,1-1.6c0.9-1.3,2.1-3.2,3.4-5c1.3-1.8,2.6-3.6,3.5-4.9
	c0.5-0.7,0.9-1.2,1.3-1.6c0.2-0.4,0.5-0.6,0.5-0.6s0.4-0.6,0.8-1c0.4-0.5,0.8-1,0.8-1c0.6,0.5,1.2,0.9,1.9,1.5
	c0.7,0.5,1.3,1,2.1,1.6c1.3,1.1,2.8,2.2,4.1,3.3c0.7,0.5,1.4,1.2,2,1.7c0.3,0.3,0.7,0.5,0.9,0.8c0.3,0.3,0.7,0.5,0.9,0.8
	c1.2,1.1,2.4,2.2,3.5,3.2c-0.8,1.2-1.8,2.4-2.7,3.7c-0.2,0.4-0.6,0.8-0.8,1.2c-0.2,0.4-0.5,0.7-0.7,1.2c-0.5,0.7-0.9,1.6-1.3,2.4
	c-0.8,1.5-1.4,2.9-2,4.4c-1.6,4.3-2.1,7.8-1.7,11.1c0.4,3,1.2,6,2.4,8.7c0.6,1.3,1.2,2.5,2,3.7c0.8,1.2,1.5,2.2,2.4,3.2
	c0.4,0.5,0.9,1,1.4,1.4c0.5,0.4,0.9,0.8,1.4,1.3c0.5,0.4,1,0.7,1.4,1c0.5,0.3,1,0.6,1.5,0.9c0.5,0.3,1.1,0.5,1.6,0.7
	c0.3,0.1,0.5,0.1,0.8,0.2c0.1,0,0.3,0.1,0.4,0.1l0.4,0.1c0.5,0.1,1.1,0.3,1.6,0.4c0.3,0.1,0.5,0.1,0.9,0.1c0.2,0,0.6,0,0.8,0h0
	c0.2,0,0.6,0,0.8,0c0.4,0,0.6,0,0.9-0.1c0.5-0.1,1-0.2,1.6-0.4l0.4-0.1c0.1,0,0.3-0.1,0.4-0.1c0.3-0.1,0.5-0.1,0.8-0.2
	c0.5-0.2,1.1-0.4,1.6-0.7c0.5-0.3,1-0.6,1.5-0.9c0.4-0.3,0.9-0.6,1.4-1c0.5-0.4,0.9-0.8,1.4-1.3c0.5-0.4,1-0.9,1.4-1.4
	c0.9-1,1.6-2.1,2.4-3.2c0.8-1.2,1.4-2.4,2-3.7c1.2-2.7,2.1-5.6,2.4-8.7c0.4-3.3-0.1-6.9-1.7-11.1c-0.5-1.5-1.2-2.9-2-4.4
	c-0.4-0.8-0.8-1.6-1.3-2.4c-0.2-0.5-0.4-0.8-0.7-1.2c-0.2-0.4-0.6-0.8-0.8-1.2c-0.9-1.3-1.9-2.6-2.7-3.7c1-1,2.2-2.1,3.5-3.2
	c0.3-0.3,0.7-0.5,0.9-0.8c0.3-0.3,0.7-0.5,0.9-0.8c0.7-0.5,1.4-1.2,2-1.7c1.3-1.1,2.8-2.2,4.1-3.3c0.8-0.6,1.4-1,2.1-1.6
	c0.7-0.5,1.3-1,1.9-1.5c0,0,0.4,0.6,0.8,1c0.4,0.5,0.8,1,0.8,1s0.2,0.2,0.5,0.6c0.3,0.4,0.7,1,1.3,1.6c1,1.4,2.2,3.1,3.5,4.9
	c1.3,1.8,2.5,3.6,3.4,5c0.4,0.7,0.8,1.3,1,1.6c0.3,0.4,0.5,0.6,0.5,0.6c-0.5,0.5-1.1,1-1.7,1.4c-0.6,0.5-1.1,1-1.8,1.5
	c-1.4,1.3-2.7,2.5-3.9,3.8c-1.2,1.3-2.1,2.5-3,3.7c-2.7,3.7-4.1,7.1-4.5,10.3c-0.3,1.6-0.4,3-0.3,4.6c0,0.8,0,1.5,0.1,2.3
	c0.1,0.8,0.2,1.5,0.3,2.3c0.2,1.4,0.6,2.8,1,4.1c0.3,0.7,0.5,1.3,0.7,1.9c0.2,0.3,0.2,0.6,0.4,0.9c0.2,0.3,0.2,0.6,0.4,0.9
	c0.6,1.2,1.3,2.2,2,3.2c0.4,0.5,0.8,0.9,1.2,1.4c0.4,0.5,0.8,0.9,1.2,1.3c0.9,0.9,1.8,1.5,2.8,2c0.3,0.1,0.4,0.2,0.7,0.4
	c0.1,0,0.3,0.1,0.3,0.2c0.1,0,0.3,0.1,0.3,0.2c0.4,0.2,1.1,0.4,1.5,0.5c0.3,0.1,0.5,0.2,0.8,0.2c0.1,0,0.3,0.1,0.4,0.1
	c0.1,0,0.3,0.1,0.4,0.1c0.5,0.1,1.1,0.2,1.7,0.1c0.5,0.1,1.1-0.1,1.7-0.1c0.5-0.1,1.1-0.2,1.7-0.3c0.5-0.1,1.1-0.3,1.6-0.4
	c0.6-0.2,1.1-0.4,1.7-0.7c1.1-0.4,2.2-1,3.3-1.8c1.1-0.7,2.2-1.5,3.1-2.5c0.5-0.5,1-0.9,1.5-1.4c0.1-0.3,0.4-0.6,0.7-0.8
	c0.2-0.2,0.4-0.5,0.7-0.8c1.9-2.3,3.5-4.9,4.7-7.7c0.6-1.5,1-3.2,1.3-5c0.2-1.9,0.2-3.9,0-6.2c-0.3-2.9-1-6.3-2.2-10
	c-0.3-0.7-0.5-1.5-0.8-2.2c-0.2-0.3-0.3-0.7-0.4-1.1c-0.1-0.4-0.3-0.7-0.4-1.1c0.4-0.2,0.7-0.4,1-0.6c0.3-0.2,0.7-0.4,1-0.6
	c0.8-0.4,1.5-0.8,2.3-1.1c0.7-0.4,1.5-0.9,2.3-1.2c0.8-0.4,1.6-0.8,2.4-1.2c0.9-0.4,1.7-0.8,2.5-1.1c0.9-0.3,1.7-0.7,2.4-1
	c1.6-0.7,3.2-1.3,4.6-1.9c0,0,0.1,0.2,0.3,0.6c0.2,0.5,0.4,1.1,0.8,1.8c0.3,0.7,0.7,1.7,1.1,2.6c0.4,0.9,0.8,2,1.2,3
	c0.8,2.1,1.6,4.1,2,5.7c0.5,1.6,0.8,2.6,0.8,2.6s0.2,0.6,0.4,1.3c0.2,0.6,0.4,1.3,0.4,1.3c-1.3,0.5-2.8,1.2-4.2,1.9
	c-0.5,0.2-0.8,0.4-1.3,0.6c-0.4,0.2-0.8,0.4-1.2,0.7c-0.8,0.4-1.5,0.9-2.3,1.3c-1.4,0.9-2.7,1.8-3.9,2.7c-3.5,2.9-5.7,5.7-7,8.8
	c-1.2,2.9-1.9,5.9-2.2,8.8c-0.1,0.8,0,1.5-0.1,2.2c0,0.7,0,1.4,0.1,2.1c0,1.4,0.2,2.7,0.5,4c0.1,0.6,0.2,1.3,0.4,1.9
	c0.2,0.6,0.4,1.1,0.6,1.7c0.3,0.5,0.5,1.1,0.8,1.6c0.1,0.3,0.1,0.5,0.4,0.8c0.2,0.2,0.3,0.5,0.5,0.7c0.6,1,1.3,1.9,2.6,3.3
	c0.7,0.7,1.5,1.3,2.3,1.8l0,0c0.1,0,0.1,0.1,0.2,0.1c0.1,0,0.1,0.1,0.2,0.1l0,0c0.9,0.5,1.7,0.9,2.7,1.1c1.1,0.4,2.1,0.5,3.4,0.6
	c0.3,0.1,0.6,0,0.9,0.1c0.3-0.1,0.6,0,0.9-0.1c0.6,0,1.2,0,1.8-0.1c0.6,0,1.2-0.2,1.8-0.3c0.6-0.2,1.2-0.3,1.8-0.6
	c1.2-0.5,2.5-0.9,3.7-1.6c0.6-0.3,1.3-0.6,1.9-1c0.6-0.3,1.3-0.8,1.8-1.2c2.5-1.7,4.6-3.8,6.5-6.3c2-2.7,3.4-6,4.1-10.5
	c0.2-1.4,0.4-3,0.4-4.7c0-0.8,0.1-1.7,0-2.6c0-0.4,0.1-0.9,0-1.4c-0.1-0.5,0-0.9-0.1-1.4c-0.1-1.6-0.3-3.2-0.5-4.6
	c1.4-0.4,3-0.7,4.6-1c0.5-0.1,0.9-0.2,1.3-0.3c0.4,0,0.9-0.1,1.3-0.2c0.8-0.2,1.7-0.3,2.6-0.5c0.9-0.2,1.8-0.3,2.7-0.4
	c0.9-0.1,1.8-0.3,2.6-0.3c0.9-0.2,1.8-0.3,2.5-0.4c0.9-0.1,1.6-0.2,2.3-0.3c0,0,0,0.7,0.1,1.4c0,0.7,0.1,1.4,0.1,1.4
	s0.2,1.1,0.4,2.8c0.2,1.6,0.5,3.8,0.7,6.1c0.1,1.1,0.1,2.3,0.2,3.2c0,0.9,0.2,1.9,0.2,2.7c0.1,0.8,0.1,1.4,0.2,1.9
	c0.1,0.5,0,0.7,0,0.7c-0.4,0.1-0.8,0.1-1.1,0.2c-0.4,0-0.8,0.1-1.1,0.2c-0.8,0.1-1.5,0.3-2.3,0.4c-3.8,0.7-7.1,1.8-9.7,3.1
	c-2.1,0.9-3.9,1.9-5.3,3.1c-1.5,1.1-2.7,2.4-3.7,3.6c-1.9,2.5-3.3,5.2-4.3,7.9c-0.1,0.3-0.3,0.7-0.3,1c-0.1,0.3-0.3,0.7-0.3,1
	c-0.2,0.7-0.4,1.4-0.5,2c-0.3,1.3-0.5,2.6-0.5,4c0,1.3,0,2.6,0.1,3.8c0,0.6,0.1,1.2,0.3,1.8c0.1,0.5,0.3,1.1,0.4,1.6
	c0.1,0.5,0.3,1.1,0.6,1.6c0.3,0.5,0.5,1,0.8,1.5c0.3,0.5,0.6,0.9,1,1.4c0.1,0,0.2,0.2,0.3,0.3c0.1,0,0.2,0.2,0.3,0.3
	c0.3,0.1,0.4,0.3,0.6,0.6c0.4,0.3,0.9,0.7,1.2,1.1c0.1,0,0.3,0.1,0.3,0.2l0.3,0.2c0.2,0.1,0.4,0.2,0.7,0.4c1,0.5,2.1,1,3.2,1.4
	c0.6,0.1,1.1,0.3,1.7,0.4c0.6,0.2,1.2,0.3,1.8,0.3c1.2,0.1,2.5,0.1,3.8,0.1c0.4,0,0.6-0.1,1-0.1c0.4,0,0.6-0.1,1-0.1
	c0.7,0,1.4-0.1,2-0.3c1.3-0.3,2.7-0.7,4-1.2c0.7-0.3,1.5-0.5,2.1-0.9c0.6-0.3,1.3-0.7,2-1.1c1.3-0.8,2.6-1.6,3.8-2.6
	c2.6-2.1,4.8-5,6.6-9.1c0.5-1.3,1.1-2.8,1.7-4.5c0.5-1.6,0.9-3.4,1.3-5.3c0.1-0.8,0.3-1.6,0.4-2.3c0.2-0.7,0.3-1.5,0.4-2.2
	c0.7,0,1.5,0,2.3,0c0.8,0,1.6,0.1,2.5,0.1c0.8,0.1,1.7,0.1,2.5,0.2c0.8,0.1,1.7,0.2,2.6,0.2c1.9,0.2,3.6,0.3,5.4,0.5
	c1.6,0.2,3.3,0.5,4.8,0.7c0,0-0.1,0.3-0.1,0.8c0,0.4-0.1,1.1-0.2,2c-0.2,1.6-0.6,3.8-0.9,6c-0.4,2.1-0.7,4.3-1.1,5.9
	c-0.4,1.6-0.6,2.7-0.6,2.7s-0.1,0.6-0.3,1.3c-0.2,0.7-0.3,1.3-0.3,1.3c-1.4-0.1-3-0.4-4.6-0.4c-0.5-0.1-1-0.1-1.4-0.1
	c-0.5,0.1-0.9,0-1.4,0c-0.9,0-1.8,0-2.7,0.1c-1.8,0-3.3,0.3-4.8,0.5c-4.5,0.8-7.8,2.2-10.5,4.2c-2.4,1.8-4.5,4-6.3,6.5
	c-0.9,1.1-1.6,2.3-2.2,3.6c-0.6,1.3-1.2,2.4-1.6,3.7c-0.2,0.7-0.4,1.3-0.5,1.9c-0.1,0.6-0.3,1.2-0.4,1.9c-0.1,0.5-0.2,1.2-0.2,1.7
	c0,0.6,0,1.2,0,1.8c0,0.6,0,1.2,0.2,1.7c0.1,0.3,0.1,0.5,0.2,0.8c0,0.1,0.1,0.3,0.1,0.4l0.1,0.4c0.1,0.5,0.3,1.1,0.5,1.6
	c0.1,0.3,0.3,0.5,0.4,0.9c0.1,0.3,0.2,0.8,0.3,1c0.3,0.4,0.6,0.9,1,1.4c0.2,0.2,0.3,0.4,0.5,0.7c0.1,0,0.2,0.2,0.3,0.3l0.3,0.3
	c0.8,0.8,1.7,1.5,2.7,2.1c0.9,0.6,2,1.1,3.1,1.6c0.3,0.1,0.6,0.2,0.9,0.3c0.3,0.1,0.6,0.2,0.9,0.3c0.7,0.3,1.3,0.4,1.9,0.5
	c0.7,0.2,1.3,0.3,2,0.3c0.6,0.1,1.3,0.2,2,0.2c1.4,0,2.8,0,4.2-0.1c1.5,0,3-0.4,4.4-0.7c1.5-0.3,2.9-0.9,4.3-1.5
	c1.5-0.6,3-1.5,4.4-2.7c1.5-1.1,2.9-2.6,4.3-4.3c0.4-0.6,0.9-1.2,1.4-1.8c0.2-0.3,0.5-0.6,0.7-1c0.3-0.4,0.5-0.7,0.7-1.1
	c0.8-1.5,1.8-3.1,2.7-4.8c0.7-1.4,1.3-2.9,1.9-4.2c0.7,0.2,1.4,0.4,2.2,0.7c0.8,0.2,1.5,0.5,2.3,0.8c1.7,0.5,3.3,1.1,5,1.7
	c1.6,0.6,3.3,1.2,4.9,1.9c0.5,0.2,0.8,0.4,1.2,0.5c0.4,0.1,0.7,0.3,1.1,0.4c0.8,0.4,1.5,0.6,2.2,0.9c0,0-0.2,0.6-0.5,1.2
	c-0.2,0.6-0.5,1.2-0.5,1.2s-0.1,0.3-0.3,0.7c-0.2,0.4-0.5,1.1-0.8,1.8c-0.6,1.5-1.5,3.5-2.5,5.5c-0.9,2-1.9,4-2.6,5.4
	c-0.7,1.4-1.3,2.4-1.3,2.4c-1.3-0.5-2.7-1.1-4.3-1.6c-1.8-0.7-3.6-1.2-5.3-1.5c-0.8-0.1-1.6-0.4-2.4-0.5c-0.8-0.1-1.5-0.2-2.3-0.3
	c-4.5-0.5-8.1,0-11.1,1.2c-2.8,1.1-5.5,2.7-7.8,4.7c-2.2,1.8-4,3.9-5.5,6.1c-0.3,0.5-0.6,1.1-0.9,1.7c-0.1,0.3-0.2,0.6-0.4,0.8
	c-0.1,0.3-0.2,0.6-0.4,0.8c-0.5,1.1-0.9,2.1-1.1,3.3c-0.2,1.2-0.4,2.3-0.3,3.4c-0.1,1.1,0.1,2.2,0.4,3.3c0.3,1.1,0.7,2,1.3,3
	c0.5,1,1.2,2,2,2.8c0.7,0.8,1.6,1.6,2.6,2.3c0.2,0.2,0.5,0.4,0.7,0.5c0.2,0.2,0.5,0.4,0.7,0.5c0.5,0.3,1,0.6,1.6,0.9
	c2.4,1.1,5,2,7.8,2.5c3,0.4,6,0.6,9.1,0.1c3.2-0.5,6.6-1.9,10.2-4.5c0.6-0.4,1.2-0.9,1.8-1.4c0.6-0.5,1.2-1.1,1.8-1.6
	c1.2-1.1,2.5-2.5,3.8-4c1-1.2,2-2.4,2.9-3.6c1.3,0.7,2.6,1.6,4.1,2.6c1.3,0.9,2.9,1.9,4.3,2.9c0.7,0.5,1.5,1.1,2.2,1.6
	c0.7,0.5,1.4,1,2.1,1.6c0.4,0.3,0.7,0.5,1,0.8c0.3,0.3,0.6,0.5,0.9,0.8c0.6,0.5,1.3,1,1.8,1.4c0,0-0.6,0.9-1.6,2.2
	c-0.5,0.6-1.2,1.4-1.7,2.2c-0.7,0.8-1.3,1.7-2,2.5c-0.6,0.9-1.4,1.8-2,2.5c-0.7,0.8-1.2,1.5-1.8,2.1c-0.6,0.6-1,1.1-1.3,1.5
	c-0.3,0.3-0.5,0.5-0.5,0.5s-0.5,0.4-0.9,1c-0.4,0.5-0.9,1-0.9,1c-1.2-0.9-2.4-1.8-3.7-2.7c-1.7-1.1-3.2-2.1-4.7-2.8
	c-0.5-0.2-0.8-0.4-1.2-0.6c-0.3-0.2-0.7-0.3-1.1-0.5c-0.7-0.3-1.5-0.6-2.1-0.9c-2.1-0.8-4.1-1.3-5.9-1.6c-1.8-0.2-3.5-0.3-5.2-0.1
	c-1.5,0.2-3,0.5-4.4,0.9c-1.4,0.5-2.8,1.1-4.2,1.6c-1.4,0.6-2.6,1.3-3.7,2c-0.6,0.4-1,0.8-1.6,1.2c-0.6,0.5-1.1,0.9-1.6,1.3
	c-0.5,0.5-1,0.9-1.4,1.4c-0.2,0.2-0.4,0.5-0.6,0.7c-0.2,0.2-0.5,0.4-0.6,0.7c-0.8,0.9-1.5,1.9-1.9,2.9c-0.6,1-1,2.1-1.3,3.2
	l-0.1,0.4c0,0.1-0.1,0.3-0.1,0.4c-0.1,0.3-0.1,0.5-0.1,0.8c-0.1,0.5-0.1,1-0.1,1.6h0c0,0,0,0,0,0c0,0,0,0,0,0h0
	c0,0.5,0.1,1.1,0.1,1.6c0.1,0.3,0.1,0.5,0.1,0.8c0,0.1,0.1,0.3,0.1,0.4l0.1,0.4c0.3,1.1,0.7,2.2,1.3,3.2c0.5,1,1.1,2,1.9,2.9
	c0.1,0.3,0.4,0.5,0.6,0.7c0.2,0.2,0.4,0.5,0.6,0.7c0.4,0.5,0.9,0.9,1.4,1.4c0.5,0.4,0.9,0.8,1.6,1.3c0.6,0.4,1,0.8,1.6,1.2
	c1.1,0.7,2.3,1.4,3.7,2c1.4,0.6,2.8,1.2,4.2,1.6c1.4,0.5,3,0.7,4.4,0.9c1.6,0.2,3.3,0.2,5.2-0.1c1.8-0.2,3.8-0.8,5.9-1.6
	c0.7-0.3,1.4-0.6,2.1-0.9c0.3-0.2,0.7-0.3,1.1-0.5c0.3-0.2,0.7-0.4,1.2-0.6c1.5-0.8,3-1.7,4.7-2.8c1.3-0.9,2.5-1.8,3.7-2.7
	c0,0,0.5,0.5,0.9,1c0.4,0.6,0.9,1,0.9,1s0.2,0.2,0.5,0.5c0.3,0.4,0.7,0.9,1.3,1.5c0.6,0.6,1.1,1.3,1.8,2.1c0.7,0.8,1.4,1.6,2,2.5
	c0.7,0.9,1.4,1.8,2,2.5c0.6,0.8,1.3,1.6,1.7,2.2c1,1.3,1.6,2.2,1.6,2.2C443.5,276,442.9,276.5,442.2,277z M414.8,294.1
	c-0.9,0.4-1.8,0.7-2.7,1.1c-4.1,1.5-6.9,2-8.7,2.2c-0.9,0.1-1.5,0-1.8,0c-0.4,0-0.6-0.1-0.6-0.1c-2-0.7-3.7-1.9-4.8-3.6
	c-0.2-0.4-0.5-0.9-0.7-1.2c-0.2-0.4-0.4-0.8-0.4-1.3c-0.1-0.8-0.2-1.7,0.1-2.5c0.2-0.8,0.6-1.6,1.2-2.2c0.3-0.3,0.6-0.6,1-0.9
	c0.4-0.3,0.7-0.5,1.2-0.7c1.7-0.9,3.9-1.1,6-0.7c0,0,0.1,0,0.6,0.2c0.3,0.2,0.9,0.5,1.6,0.9c1.4,1,3.6,2.8,6.4,6.3
	C413.6,292.6,414.2,293.4,414.8,294.1z M397.9,335.6c-0.2,0-0.4,0-0.8,0.1c-0.2,0-0.5,0.1-0.8,0.1c-0.5,0.1-1,0.1-1.5,0.2
	c-1.1,0.1-2.1,0.2-3,0.2c-0.9,0.1-1.7,0.1-2.4,0c-1.4-0.1-2.7-0.2-3.4-0.3c-0.9-0.2-1.5-0.3-1.9-0.4c-0.4-0.1-0.6-0.2-0.6-0.2
	c-1.8-1.2-3.1-2.8-3.7-4.7c-0.1-0.2-0.2-0.5-0.2-0.7c0-0.2-0.1-0.4-0.2-0.7c0-0.4-0.1-0.9-0.1-1.3c0-0.4,0.1-0.9,0.2-1.3
	c0.1-0.4,0.3-1.2,0.4-1.6c0.9-1.5,2.4-2.4,4.3-2.8c1.9-0.4,4,0,6,1c0,0,0.2,0.1,0.5,0.4c0.3,0.3,0.8,0.7,1.2,1.4
	c0.5,0.7,1.3,1.6,2,2.8c0.3,0.6,0.8,1.4,1.2,2.2c0.4,0.8,0.9,1.7,1.3,2.7C396.9,333.3,397.6,334.7,397.9,335.6z M370.6,370.7
	c-1-0.1-1.9-0.3-2.9-0.4c-2.2-0.4-4-0.8-5.3-1.2c-0.7-0.2-1.3-0.4-1.9-0.7c-0.5-0.1-1.1-0.4-1.4-0.6c-0.8-0.4-1.3-0.6-1.7-0.9
	c-0.4-0.2-0.4-0.3-0.5-0.4c-0.7-0.8-1.3-1.7-1.7-2.6c-0.4-0.9-0.7-1.9-0.7-2.8c-0.1-1,0.1-1.9,0.3-2.7c0.1-0.4,0.4-0.8,0.5-1.1
	c0.2-0.4,0.5-0.7,0.8-1c0.6-0.6,1.4-1,2.1-1.3c0.8-0.2,1.7-0.4,2.7-0.3c1,0.1,2,0.4,2.9,0.8c0.9,0.4,1.9,1,2.6,1.7
	c0,0,0.2,0.1,0.4,0.5c0.1,0.3,0.4,0.8,0.8,1.6c0.4,0.8,0.8,1.8,1.2,3.3c0.2,0.7,0.4,1.5,0.7,2.4c0.1,0.4,0.2,0.9,0.4,1.4
	c0.1,0.5,0.2,1,0.3,1.6C370.3,368.8,370.5,369.8,370.6,370.7z M129.4,370.7c0.1-0.9,0.3-1.9,0.4-2.9c0.1-0.5,0.2-1,0.3-1.6
	c0.2-0.5,0.2-1,0.4-1.4c0.3-0.9,0.5-1.7,0.7-2.4c0.4-1.4,0.8-2.4,1.2-3.3c0.4-0.8,0.7-1.3,0.8-1.6c0.2-0.3,0.4-0.5,0.4-0.5
	c0.8-0.7,1.7-1.3,2.6-1.7c0.9-0.4,1.9-0.7,2.9-0.8c1-0.1,1.9,0.1,2.7,0.3c0.7,0.3,1.5,0.8,2.1,1.3c0.3,0.3,0.5,0.7,0.8,1
	c0.2,0.3,0.4,0.7,0.5,1.1c0.2,0.8,0.4,1.7,0.3,2.7c-0.1,0.9-0.3,1.9-0.7,2.8c-0.4,0.9-1,1.8-1.7,2.6c0,0.1-0.1,0.2-0.5,0.4
	c-0.4,0.2-0.9,0.5-1.7,0.9c-0.3,0.2-0.8,0.4-1.4,0.6c-0.6,0.2-1.2,0.5-1.9,0.7c-1.4,0.4-3.1,0.9-5.3,1.2
	C131.3,370.4,130.4,370.6,129.4,370.7z M102.1,335.6c0.3-0.9,0.9-2.2,1.3-3.2c0.5-1,0.9-1.9,1.3-2.7c0.4-0.8,0.9-1.6,1.2-2.2
	c0.7-1.2,1.4-2.1,2-2.8c0.5-0.6,1-1.1,1.2-1.4c0.3-0.3,0.5-0.4,0.5-0.4c1.9-1,4.1-1.3,6-1c1.9,0.4,3.4,1.3,4.3,2.8
	c0.1,0.4,0.3,1.2,0.4,1.6c0.1,0.4,0.2,0.8,0.2,1.3c0,0.4-0.1,0.9-0.1,1.3c-0.1,0.3-0.2,0.5-0.2,0.7c0,0.2-0.1,0.5-0.2,0.7
	c-0.6,1.9-1.9,3.5-3.7,4.7c0,0-0.2,0.1-0.6,0.2c-0.4,0.1-1,0.3-1.9,0.4c-0.8,0.1-2,0.2-3.4,0.3c-0.7,0-1.5,0-2.4,0
	c-0.9-0.1-1.9-0.2-3-0.2c-0.5-0.1-1-0.1-1.5-0.2c-0.2,0-0.5-0.1-0.8-0.1C102.6,335.6,102.4,335.6,102.1,335.6z M85.2,294.1
	c0.5-0.7,1.1-1.6,1.8-2.3c2.8-3.5,5-5.2,6.4-6.3c0.7-0.4,1.3-0.8,1.6-0.9c0.5-0.2,0.6-0.2,0.6-0.2c2.1-0.4,4.3-0.2,6,0.7
	c0.5,0.2,0.8,0.4,1.2,0.7c0.4,0.3,0.7,0.6,1,0.9c0.6,0.6,1,1.4,1.2,2.2c0.3,0.7,0.2,1.6,0.1,2.5c0,0.4-0.1,0.8-0.4,1.3
	c-0.2,0.3-0.4,0.8-0.7,1.2c-1.1,1.7-2.8,2.9-4.8,3.6c0,0-0.3,0.1-0.6,0.1c-0.4,0-0.9,0-1.8,0c-1.7-0.2-4.6-0.7-8.7-2.2
	C87,294.8,86.2,294.6,85.2,294.1z M79.4,250c0.7-0.5,1.4-1.2,2.2-1.7c0.9-0.6,1.7-1.2,2.5-1.7c0.8-0.4,1.5-0.8,2.2-1.2
	c1.4-0.7,2.4-1.1,3.1-1.4c0.8-0.4,1.4-0.4,1.8-0.6c0.4-0.1,0.5-0.1,0.6-0.1c2.2,0.1,4.1,0.9,5.6,2.2c1.4,1.3,2.2,2.9,2.3,4.6
	c-0.1,1.7-0.9,3.3-2.3,4.6c-1.6,1.3-3.5,2-5.6,2.2c-0.1,0-0.2,0-0.6-0.1c-0.4-0.1-0.9-0.2-1.8-0.6c-0.7-0.3-1.7-0.8-3.1-1.4
	c-0.7-0.4-1.4-0.8-2.2-1.2c-0.8-0.4-1.6-1-2.5-1.7C80.9,251.2,80.1,250.5,79.4,250z M85.2,205.9c0.9-0.4,1.8-0.7,2.7-1.1
	c4.1-1.5,6.9-2,8.7-2.2c0.9-0.1,1.5,0,1.8,0c0.4,0,0.6,0.1,0.6,0.1c2,0.7,3.7,1.9,4.8,3.6c0.2,0.4,0.5,0.9,0.7,1.2
	c0.2,0.4,0.4,0.8,0.4,1.3c0.1,0.8,0.2,1.7-0.1,2.5c-0.2,0.8-0.6,1.6-1.2,2.2c-0.3,0.3-0.6,0.6-1,0.9c-0.4,0.3-0.7,0.5-1.2,0.7
	c-1.7,0.9-3.9,1.1-6,0.7c0,0-0.1,0-0.6-0.2c-0.3-0.2-0.9-0.5-1.6-0.9c-1.4-1-3.6-2.8-6.4-6.3C86.4,207.4,85.8,206.6,85.2,205.9z
	 M102.1,164.4c0.2,0,0.4,0,0.8-0.1c0.2,0,0.5-0.1,0.8-0.1c0.5-0.1,1-0.1,1.5-0.2c1.1-0.1,2.1-0.2,3-0.2c0.9-0.1,1.7-0.1,2.4,0
	c1.4,0.1,2.7,0.2,3.4,0.3c0.9,0.2,1.5,0.3,1.9,0.4c0.4,0.1,0.6,0.2,0.6,0.2c1.8,1.2,3.1,2.8,3.7,4.7c0.1,0.2,0.2,0.5,0.2,0.7
	c0,0.2,0.1,0.4,0.2,0.7c0,0.4,0.1,0.9,0.1,1.3c0,0.4-0.1,0.9-0.2,1.3c-0.1,0.4-0.3,1.2-0.4,1.6c-0.9,1.5-2.4,2.4-4.3,2.8
	c-1.9,0.4-4,0-6-1c0,0-0.2-0.1-0.5-0.4c-0.3-0.3-0.8-0.7-1.2-1.4c-0.5-0.7-1.3-1.6-2-2.8c-0.3-0.6-0.8-1.4-1.2-2.2
	c-0.4-0.8-0.9-1.7-1.3-2.7C103.1,166.7,102.4,165.3,102.1,164.4z M129.4,129.3c1,0.1,1.9,0.3,2.9,0.4c2.2,0.4,4,0.8,5.3,1.2
	c0.7,0.2,1.3,0.4,1.9,0.7c0.5,0.1,1.1,0.4,1.4,0.6c0.8,0.4,1.3,0.6,1.7,0.9s0.4,0.3,0.5,0.4c0.7,0.8,1.3,1.7,1.7,2.6
	c0.4,0.9,0.7,1.9,0.7,2.8c0.1,1-0.1,1.9-0.3,2.7c-0.1,0.4-0.4,0.8-0.5,1.1c-0.2,0.4-0.5,0.7-0.8,1c-0.6,0.6-1.4,1-2.1,1.3
	c-0.8,0.2-1.7,0.4-2.7,0.3c-1-0.1-2-0.4-2.9-0.8c-0.9-0.4-1.9-1-2.6-1.7c0,0-0.2-0.1-0.4-0.5c-0.1-0.3-0.4-0.8-0.8-1.6
	c-0.4-0.8-0.8-1.8-1.2-3.3c-0.2-0.7-0.4-1.5-0.7-2.4c-0.1-0.4-0.2-0.9-0.4-1.4c-0.1-0.5-0.2-1-0.3-1.6
	C129.7,131.2,129.5,130.2,129.4,129.3z M370.6,129.3c-0.1,0.9-0.3,1.9-0.4,2.9c-0.1,0.5-0.2,1-0.3,1.6c-0.2,0.5-0.2,1-0.4,1.4
	c-0.3,0.9-0.5,1.7-0.7,2.4c-0.4,1.4-0.8,2.4-1.2,3.3c-0.4,0.8-0.7,1.3-0.8,1.6c-0.2,0.3-0.4,0.5-0.4,0.5c-0.8,0.7-1.7,1.3-2.6,1.7
	c-0.9,0.4-1.9,0.7-2.9,0.8c-1,0.1-1.9-0.1-2.7-0.3c-0.7-0.3-1.5-0.8-2.1-1.3c-0.3-0.3-0.5-0.7-0.8-1c-0.2-0.3-0.4-0.7-0.5-1.1
	c-0.2-0.8-0.4-1.7-0.3-2.7c0.1-0.9,0.3-1.9,0.7-2.8c0.4-0.9,1-1.8,1.7-2.6c0-0.1,0.1-0.2,0.5-0.4c0.4-0.2,0.9-0.5,1.7-0.9
	c0.3-0.2,0.8-0.4,1.4-0.6c0.6-0.2,1.2-0.5,1.9-0.7c1.4-0.4,3.1-0.9,5.3-1.2C368.7,129.6,369.6,129.4,370.6,129.3z M397.9,164.4
	c-0.3,0.9-0.9,2.2-1.3,3.2c-0.5,1-0.9,1.9-1.3,2.7c-0.4,0.8-0.9,1.6-1.2,2.2c-0.7,1.2-1.4,2.1-2,2.8c-0.5,0.6-1,1.1-1.2,1.4
	c-0.3,0.3-0.5,0.4-0.5,0.4c-1.9,1-4.1,1.3-6,1c-1.9-0.4-3.4-1.3-4.3-2.8c-0.1-0.4-0.3-1.2-0.4-1.6c-0.1-0.4-0.2-0.8-0.2-1.3
	c0-0.4,0.1-0.9,0.1-1.3c0.1-0.3,0.2-0.5,0.2-0.7c0-0.2,0.1-0.5,0.2-0.7c0.6-1.9,1.9-3.5,3.7-4.7c0,0,0.2-0.1,0.6-0.2
	c0.4-0.1,1-0.3,1.9-0.4c0.8-0.1,2-0.2,3.4-0.3c0.7,0,1.5,0,2.4,0c0.9,0.1,1.9,0.2,3,0.2c0.5,0.1,1,0.1,1.5,0.2
	c0.2,0,0.5,0.1,0.8,0.1C397.4,164.4,397.6,164.4,397.9,164.4z M414.8,205.9c-0.5,0.7-1.1,1.6-1.8,2.3c-2.8,3.5-5,5.2-6.4,6.3
	c-0.7,0.4-1.3,0.8-1.6,0.9c-0.5,0.2-0.6,0.2-0.6,0.2c-2.1,0.4-4.3,0.2-6-0.7c-0.5-0.2-0.8-0.4-1.2-0.7c-0.4-0.3-0.7-0.6-1-0.9
	c-0.6-0.6-1-1.4-1.2-2.2c-0.3-0.7-0.2-1.6-0.1-2.5c0-0.4,0.1-0.8,0.4-1.3c0.2-0.3,0.4-0.8,0.7-1.2c1.1-1.7,2.8-2.9,4.8-3.6
	c0,0,0.3-0.1,0.6-0.1c0.4,0,0.9,0,1.8,0c1.7,0.2,4.6,0.7,8.7,2.2C413,205.2,413.8,205.4,414.8,205.9z M420.6,250
	c-0.7,0.5-1.4,1.2-2.2,1.7c-0.9,0.6-1.7,1.2-2.5,1.7c-0.8,0.4-1.5,0.8-2.2,1.2c-1.4,0.7-2.4,1.1-3.1,1.4c-0.8,0.4-1.4,0.4-1.8,0.6
	c-0.4,0.1-0.5,0.1-0.6,0.1c-2.2-0.1-4.1-0.9-5.6-2.2c-1.4-1.3-2.2-2.9-2.3-4.6c0.1-1.7,0.9-3.3,2.3-4.6c1.6-1.3,3.5-2,5.6-2.2
	c0.1,0.1,0.2,0,0.6,0.1c0.4,0.1,0.9,0.2,1.8,0.6c0.7,0.3,1.7,0.8,3.1,1.4c0.7,0.4,1.4,0.8,2.2,1.2c0.8,0.4,1.6,1,2.5,1.7
	C419.1,248.8,419.9,249.5,420.6,250z M485.2,281.2c-0.3,2.7-1.6,5.1-3.3,6.7c-0.5,0.4-0.9,0.8-1.4,1c-0.5,0.3-1,0.5-1.5,0.6
	c-1.1,0.4-2.1,0.4-3.1,0.2c0,0-0.1,0-0.6-0.2c-0.3-0.2-0.9-0.5-1.6-1.2c-0.4-0.2-0.7-0.6-1.2-1.1c-0.5-0.4-1-0.9-1.5-1.6
	c-1.1-1.2-2.4-2.7-3.9-4.7c-0.7-0.9-1.4-1.8-2-2.7c0.8-0.6,1.7-1.3,2.7-2c0.5-0.4,1-0.7,1.4-1c0.5-0.4,0.9-0.6,1.3-0.9
	c0.8-0.6,1.6-1,2.2-1.5c1.3-0.9,2.5-1.4,3.3-1.8c0.8-0.4,1.4-0.6,1.8-0.7c0.4-0.1,0.6-0.1,0.6-0.1c2.1,0.2,4,1.4,5.3,3.4
	c0.5,1.1,1.1,2.3,1.3,3.5c0.1,0.6,0.2,1.3,0.2,2C485.3,279.8,485.2,280.4,485.2,281.2z"/>
</svg>
